<svg viewBox="0 0 479 507" xmlns="http://www.w3.org/2000/svg"><path fill="#EFEFEF" d="M1.954 142.317c1.284-2.503 2.877-8.111 3.54-12.46.663-4.33 2.83-9.627 4.817-11.747 1.987-2.137 3.612-5.444 3.612-7.362 0-6.614 5.833-13.209 18.547-20.991 7.012-4.312 17.008-8.715 22.216-9.811 5.205-1.114 10.904-2.759 12.663-3.672 1.985-1.041 3.19-1.023 3.19.073 0 1.973 10.594-2.868 14.284-6.54 1.333-1.316 4.621-2.905 7.306-3.563 2.703-.64 5.717-1.772 6.722-2.521 1.004-.75 6.21-2.284 11.561-3.416 11.453-2.412 32.476-12.058 37.992-17.433 4.931-4.812 11.616-15.797 11.635-19.106 0-1.396 1.753-6.045 3.89-10.33 3.489-6.98 4.968-8.093 14.283-10.705 12.95-3.634 15.544-3.64 19.142-.044 1.59 1.578 2.868 2.3 2.868 1.604 0-.698 1.04-.448 2.283.555 3.068 2.449 25.772 1.58 36.457-1.393 7.525-2.089 10.174-1.974 21.005.9 6.83 1.81 13.224 3.926 14.228 4.703 1.005.776 2.649 1.556 3.653 1.733 3.909.687 14.083 6.093 24.658 13.107 2.52 1.664 6.63 3.3 9.133 3.632 2.52.334 5.9 2.044 7.525 3.803 1.625 1.758 3.927 3.197 5.114 3.197 1.187 0 4.055 2.056 6.393 4.568 2.32 2.512 5.005 4.567 5.973 4.567.95 0 4.493 2.454 7.854 5.443 3.342 3.014 7.817 5.992 9.917 6.65 2.083.657 5.827 3.617 8.293 6.558 3.963 4.75 16.585 12.405 20.42 12.405.767 0 5.041 2.466 9.516 5.48 4.457 3.015 9.443 5.482 11.05 5.482 1.608 0 2.923.876 2.923 1.936s-1.023 1.352-2.283.64c-1.242-.713-.457.474 1.753 2.63 2.229 2.156 4.804 3.928 5.736 3.928.95 0 2.191 1.242 2.758 2.74.584 1.517 2.32 2.74 3.854 2.74 1.534 0 2.794.732 2.794 1.627 0 .877 2.94 3.014 6.539 4.713 3.598 1.718 8.274 5.097 10.375 7.527 2.118 2.412 4.62 4.403 5.589 4.403 1.844 0 14.027 12.295 14.027 14.14 0 .603 1.187 2.412 2.63 4.001 3.507 3.874 5.096 12.917 2.284 12.953-1.535.019-1.48.457.164 1.498 1.278.823 3.142 6.56 4.146 12.734 1.005 6.193 2.612 13.373 3.598 15.967.987 2.595 1.79 9.464 1.79 15.273 0 5.792 1.699 17.046 3.781 24.993 3.927 15.035 3.781 31.57-.365 44.96-1.041 3.325-2.1 22.892-2.393 43.481-.511 36.246-2.137 47.5-6.904 47.5-.895 0-1.224.658-.73 1.48 1.095 1.754-8.622 11.309-11.49 11.309-1.095 0-1.99.858-1.99 1.918 0 1.973-8.804 10.87-10.777 10.87-.602 0-2.246 2.667-3.653 5.938-3.05 7.198-9.096 14.158-12.256 14.158-1.278 0-3.397 1.444-4.712 3.197-1.315 1.754-5.68 4.823-9.699 6.815-7.872 3.91-24.658 20.425-24.658 24.28 0 1.315-2.867 4.074-6.392 6.138-3.507 2.083-6.393 4.513-6.393 5.426 0 .914-1.845 1.68-4.11 1.717-2.246.037-6.155 1.224-8.676 2.668-2.502 1.443-6.812 2.649-9.589 2.685-2.758.019-5.023.676-5.023 1.444 0 1.48-13.333 7.746-16.438 7.746-1.005 0-1.827 1.242-1.827 2.74 0 1.516-1.242 2.74-2.776 2.74-2.393 0-6.301 2.266-20.567 11.875-1.497 1.005-4.62 3.673-6.94 5.938-2.338 2.265-5.516 4.11-7.069 4.11-1.552 0-2.83.768-2.83 1.7 0 .95-1.645 2.228-3.654 2.868-2.01.64-3.653 2.137-3.653 3.325 0 1.206-3.068 3.325-6.85 4.732-5.26 1.954-21.004 2.63-68.037 2.96-57.79.401-61.37.237-64.457-3.015-1.79-1.882-4.256-3.453-5.48-3.49-3.05-.091-9.424-5.663-10.922-9.554-.676-1.773-1.991-2.997-2.923-2.74-.931.255-1.57-.11-1.424-.823.164-.712-1.37-2.485-3.38-3.946-1.99-1.48-3.068-3.252-2.356-3.965.695-.694.074-2.484-1.388-3.946-1.48-1.461-2.21-3.416-1.644-4.348.585-.932.165-1.68-.895-1.68-1.059 0-1.936-1.243-1.936-2.777 0-1.535-2.045-3.71-4.566-4.86-2.94-1.352-4.566-3.58-4.566-6.303 0-2.32-1.68-7.216-3.744-10.888-2.046-3.654-3.38-7.016-2.923-7.473.438-.438-.95-2.667-3.105-4.932-10.703-11.309-15.142-19.95-15.653-30.473-.073-1.571-1.735-4.568-3.69-6.65-1.936-2.101-3.039-4.312-2.429-4.915.603-.62.09-1.114-1.154-1.114-5.04 0-8.98-8.916-9.876-22.38-.117-1.754-.718-3.197-1.335-3.197-.62 0-3.049-4.11-5.401-9.135-2.353-5.024-5.047-9.134-5.988-9.134-.94 0-1.27-1.133-.736-2.54.537-1.388-.809-4.457-2.99-6.796-5.777-6.211-12.204-16.04-12.204-18.69 0-1.26-.987-3.288-2.192-4.494-1.206-1.205-1.712-2.192-1.124-2.192.587 0-1.578-2.886-4.81-6.412-6.034-6.596-7.467-11.748-3.928-14.104 1.387-.932 1.3-1.352-.275-1.37-2.908-.037-2.968-10.688-.176-30.693 1.704-12.185 1.644-15.985-.307-19.64-1.33-2.484-3.512-4.512-4.849-4.512-3.45 0-3.014-3.142.727-5.243 2.966-1.662 2.95-1.991-.283-5.572-1.892-2.083-2.802-3.8-2.022-3.8.782 0 .517-1.096-.588-2.412-1.136-1.37-2.535-14.67-3.222-30.6-.742-17.265-1.995-28.683-3.228-29.487-2.882-1.864-3.032-8.897-.305-14.232zm10.79 43.846c3.567 26.016 4.555 30.071 7.222 29.615 3.512-.621 4.047 1.59 1.105 4.53-1.43 1.426-1.43 2.32 0 3.216 1.092.676 1.985.347 1.985-.713s.822-1.936 1.827-1.936c1.004 0 1.826 1.644 1.826 3.654 0 2.028-1.218 3.654-2.74 3.654-3.094 0-3.42 1.57-1.09 5.261.877 1.389 2.51 1.955 3.625 1.26 1.118-.694 2.032-.438 2.032.567s-.822 2.338-1.827 2.96c-1.005.62-1.826 5.681-1.826 11.235 0 8.422.586 10.268 3.483 11.035 5.397 1.407 6.959 11.528 1.78 11.528-1.004 0-1.318-.822-.697-1.827.62-1.005.257-1.827-.806-1.827-1.065 0-1.934-1.224-1.934-2.74 0-1.499-.745-2.74-1.655-2.74-2.179 0-4.475 17.008-2.946 21.813.658 2.064 1.96 3.763 2.897 3.763.937 0 1.704 2.43 1.704 5.39 0 2.96 1.174 6.047 2.61 6.85 2.526 1.425 2.87 2.138 2.87 6.03 0 1.004 2.56 1.826 5.691 1.826 4.851 0 5.547-.548 4.709-3.763-.65-2.485.05-4.147 2.07-4.896 1.68-.622 3.67-2.01 4.425-3.088 2.157-3.087 5.224 2.777 4.478 8.55-.358 2.759.03 5.024.86 5.024.832 0 1.511.621 1.511 1.37 0 .768-4.11 1.206-9.132.969-8.006-.348-9.133.036-9.133 3.197 0 1.973.822 3.599 1.827 3.599 1.004 0 1.826.822 1.826 1.827 0 1.004 1.644 3.47 3.653 5.48 3.383 3.38 3.653 3.417 3.653.366 0-1.809-1.003-4.293-2.226-5.518-1.75-1.753-.872-1.973 4.11-1.04 3.484.657 6.783 1.698 7.333 2.32 2.02 2.283 5.592 14.87 4.655 16.387-.533.858.21 3.124 1.653 5.024 3.449 4.567 3.449 9.865 0 9.865-1.704 0-2.74-1.717-2.74-4.567 0-2.503-.821-4.567-1.826-4.567-2.818 0-2.16 6.577.913 9.134 1.507 1.26 2.74 3.417 2.74 4.787 0 1.388.681 2.521 1.514 2.521s1.51 1.443 1.502 3.197c-.008 1.754.157 6.486.367 10.505.318 6.084.703 6.76 2.31 4 1.06-1.826 1.644-8.202 1.315-14.176-.438-7.673.037-10.834 1.626-10.834 1.626 0 2.028 3.508 1.48 12.789-.42 7.033-1.206 13.519-1.772 14.414-1.717 2.777 4.365 3.928 8.164 1.553 4.092-2.54 4.475-5.353 1.535-11.071-1.973-3.818-1.882-3.8 2.045.292 3.726 3.873 3.872 4.732 1.608 9.135-1.389 2.667-3.325 5.462-4.347 6.211-1.133.822-.95 1.352.456 1.37 1.26 0 2.283 1.718 2.283 3.782 0 2.412-.767 3.289-2.137 2.448-1.443-.913-1.735-.31-.913 1.864.676 1.754 1.224 3.983 1.224 4.969 0 .987.749 1.334 1.662.767.913-.566 1.205.822.64 3.088-.549 2.265-.403 3.562.328 2.886 2.027-1.845 8.329 5.298 8.329 9.446 0 2.01.676 3.653 1.498 3.653.803 0 2.575 2.814 3.927 6.23 2.849 7.29 6.484 6.888 8.036-.858 1.06-5.372 4.804-7.582 4.804-2.85 0 1.388 1.297 3.58 2.886 4.896 2.32 1.936 2.63 4.512 1.625 13.263-.84 7.107-.639 10.45.567 9.72 1.662-1.024 4.036 6.595 5.022 16.186.585 5.517 4.201 13.702 6.083 13.702 2.502 0 3.653-8.66 1.443-10.87-1.334-1.334-.932-1.919 1.351-1.919 2.813 0 3.197 1.352 2.649 9.427-.585 8.806-.256 9.628 4.858 12.643 8.092 4.786 10.046 4.311 10.1-2.43.056-5.609.22-5.737 2.74-2.393 1.48 1.954 2.686 5.864 2.686 8.677 0 2.832.474 5.134 1.04 5.134 2.156 0 6.266-5.316 6.266-8.093 0-1.571 1.242-2.868 2.74-2.868 1.515 0 2.74.822 2.74 1.827a1.832 1.832 0 0 1-1.827 1.826c-3.617 0-1.736 5.08 2.283 6.157 6.466 1.736 6.85 1.48 6.85-4.33 0-3.653.912-5.48 2.739-5.48 1.516 0 2.74 1.552 2.74 3.452 0 2.43 1.607 3.673 5.443 4.239 2.995.438 5.808-.091 6.246-1.17.585-1.37 1.26-1.351 2.338.056 1.882 2.52 11.544 4.439 11.544 2.301 0-.858 1.242-1.57 2.74-1.57 1.516 0 2.758.62 2.758 1.37.018.749 8.182 1.516 18.155 1.699 15.617.274 18.265-.11 18.96-2.74.62-2.376.858-2.23 1.022.657.31 5.535 9.991 5.864 13.79.457 1.57-2.248 2.85-3.07 2.85-1.827 0 2.137 12.365-4.823 17.936-10.122 1.333-1.26 3.397-2.356 4.566-2.466 1.187-.091.11-.84-2.41-1.644l-4.567-1.462 4.566-.402c2.52-.219 5.206-.292 5.991-.164.785.128 2.43-.621 3.653-1.662 1.224-1.06 3.872-3.18 5.881-4.732 2.01-1.535 2.685-2.32 1.498-1.736-1.187.603-2.667.256-3.306-.767-.676-1.096 1.005-1.864 4.073-1.864 2.886 0 6.21-.986 7.416-2.192 1.205-1.206 2.192-1.608 2.192-.913 0 .712 1.644-.366 3.653-2.375 4.146-4.147 4.767-8.459 1.37-9.592-3.49-1.187 1.351-9.08 7.287-11.875 7.745-3.635 9.845-2.722 5.206 2.284-2.32 2.521-5.17 4.567-6.302 4.567-1.15 0-2.082.822-2.082 1.827 0 2.357 3.105 2.357 4.566 0 1.462-2.338 8.22-2.393 8.22-.055 0 .969 1.04 1.37 2.283.896 1.699-.64 2.137-6.322 1.717-21.869-.365-13.92.091-20.991 1.37-20.991 1.15 0 1.936 4.512 1.936 11.162 0 9.172.493 10.962 2.74 10.103 1.863-.712 2.74.092 2.74 2.54 0 3.27-1.973 4.494-6.101 3.763-.84-.146-1.17.768-.713 2.065.457 1.279 2.174 2.229 3.818 2.082 1.644-.128 2.995.475 2.995 1.37 0 .896-1.223 1.627-2.74 1.627-1.497 0-2.74 1.333-2.74 2.96 0 2.173 1.097 2.648 4.11 1.844 2.265-.603 5.151-1.114 6.393-1.132 3.032-.019 3.032-12.24 0-13.319-1.242-.438-1.644-1.48-.895-2.302.767-.822 2.54.074 3.909 1.974 2.155 2.923 2.977 3.069 5.461 1.004 2.503-2.064 2.94-1.991 2.94.53 0 1.626.878 2.96 1.937 2.96 1.06 0 1.425.822.804 1.827-.621 1.004-.347 1.827.62 1.827.95 0 2.247-1.352 2.887-2.997.639-1.662 1.607-2.539 2.173-1.973 1.735 1.736 8.018-4.786 8.018-8.33 0-1.846.713-2.923 1.571-2.394.859.53 2.484-1.096 3.635-3.599 1.863-4.074 1.735-4.384-1.096-2.923-1.753.914-4.84 1.042-6.85.274-3.324-1.279-3.177-1.607 1.827-3.635 3.014-1.243 8.073-2.174 11.251-2.101 5.663.146 9.188-3.526 6.923-7.198-.566-.914-.256-1.663.694-1.663s2.265-2.832 2.904-6.284c.95-4.97 1.936-6.12 4.786-5.573 2.593.494 3.58-.31 3.58-2.977 0-2.175.803-3.143 2.009-2.412 1.096.676 1.68 3.983 1.278 7.326-.602 5.261-.329 5.791 2.119 3.891 1.553-1.205 3.233-2.649 3.726-3.197 3.251-3.562 12.53-8.714 13.754-7.618.785.73.73.091-.165-1.425-2.922-4.988-2.63-9.007.804-10.834 1.863-1.005 3.909-1.297 4.548-.676.64.64 1.15.201 1.15-.968 0-1.334-3.598-2.192-9.588-2.302-9.078-.146-9.26-.256-3.654-1.882 4.11-1.187 5.937-2.813 5.937-5.316 0-1.973-.822-3.599-1.827-3.599a1.832 1.832 0 0 1-1.826-1.827c0-2.375 10.41-2.375 11.872 0 .62 1.005-.347 1.827-2.174 1.827-2.283 0-3.306 1.37-3.306 4.421 0 3.435 1.133 4.604 5.023 5.17 2.777.402 5.023.201 5.023-.456 0-.64 4.128-5.59 9.151-10.98 6.776-7.253 8.548-10.213 6.85-11.437-1.59-1.15-1.17-1.407 1.351-.877 2.813.603 3.726-.219 3.927-3.617.2-3.07-.493-4.092-2.283-3.416-1.644.64-2.557-.274-2.557-2.558s.913-3.197 2.557-2.558c1.406.548 3.087.128 3.744-.931.64-1.042 1.17-20.425 1.15-43.061 0-25.23.677-41.142 1.754-41.142.968 0 1.754-1.224 1.754-2.74 0-1.499-.822-2.741-1.827-2.741a1.832 1.832 0 0 1-1.826-1.827c0-1.005 1.242-1.827 2.74-1.827a2.736 2.736 0 0 0 2.74-2.74c0-1.498-1.024-2.54-2.284-2.284-1.461.292-2.32-1.845-2.41-5.938-.512-26.49-5.773-58.187-8.823-53.254-.749 1.187-2.228 1.607-3.324.931-1.315-.803-1.023-1.918.877-3.288 2.21-1.626 2.52-3.745 1.424-9.774-.767-4.22-1.04-7.691-.602-7.691.438 0-.293-1.206-1.626-2.668-5.206-5.791-6.356-7.6-7.397-11.528-.585-2.229-.31-4.074.602-4.074 2.649 0 1.9-3.16-1.04-4.293-1.48-.566-4.037.31-5.681 1.973-2.758 2.74-2.758 3.16-.055 5.134 4.164 3.05 3.653 5.974-1.169 6.65-2.922.42-4.749 2.594-6.374 7.563-1.26 3.837-3.49 8.167-4.95 9.646-2.649 2.65-2.137 6.76 1.424 11.364 3.489 4.476 4.603 21.21 2.1 31.55-1.314 5.445-2.465 9.117-2.538 8.185-.091-.95-2.52 2.924-5.425 8.587-2.904 5.663-6.52 11.564-8.055 13.08-1.516 1.535-3.872 5.28-5.223 8.313-1.334 3.033-3.069 5.518-3.818 5.518-.767 0-1.388 1.644-1.388 3.653 0 2.01-.785 3.654-1.735 3.654-.95 0-3.105 2.887-4.767 6.394-1.68 3.526-3.763 6.395-4.658 6.395-.895 0-1.625 2.1-1.625 4.677 0 2.576-.676 4.256-1.517 3.745-.821-.512-2.94 2.302-4.694 6.284-1.753 3.965-3.89 7.217-4.749 7.217-.858 0-3.762 4.53-6.465 10.048-2.704 5.535-5.516 10.048-6.229 10.048-.73 0-2.904 3.288-4.822 7.29-1.918 4-4.091 7.289-4.858 7.307-.75.018-1.37 1.133-1.37 2.485 0 1.352-2.046 6.34-4.566 11.053-2.503 4.731-4.567 10.194-4.567 12.149 0 1.954-.822 3.562-1.826 3.562-1.005 0-1.827 1.242-1.827 2.74 0 1.517-.657 2.74-1.46 2.74-1.626 0-7.672 12.735-7.672 16.15 0 1.17-.822 2.12-1.827 2.12-1.004 0-1.826 1.644-1.826 3.654s-1.023 3.672-2.283 3.709c-1.242.018-4.33 3.38-6.85 7.453-8.018 13.026-34.667 38.165-40.457 38.165-1.863 0-3.379 1.26-3.379 2.795 0 1.516-1.936 3.508-4.292 4.403-3.909 1.498-15.8 14.542-15.8 17.356 0 .657-2.045 3.398-4.566 6.102-2.502 2.722-4.566 5.919-4.566 7.106 0 2.613-6.484 4.97-9.133 3.344-1.04-.64-6.173-.31-11.434.712-8.365 1.644-16.53 2.814-34.228 4.896-2.503.293-7.233.969-10.503 1.498-4.986.786-5.936.384-5.936-2.63 0-2.083-1.242-3.563-2.977-3.563-1.644 0-4.512-1.772-6.393-3.928-2.904-3.361-3.415-3.47-3.415-.804 0 1.718-.822 2.613-1.827 1.992-1.004-.621-1.37-2.996-.804-5.262.658-2.576-.036-5.042-1.808-6.522-1.57-1.297-2.867-3.343-2.867-4.53 0-1.188-1.17-3.764-2.612-5.719-2.54-3.453-2.667-3.416-4.567 1.023-1.662 3.891-1.808 3.416-.876-3.197.602-4.403.328-7.764-.64-7.764-.95 0-2.575-2.668-3.616-5.938l-1.863-5.937-1.37 5.937c-.73 3.27-2.155 5.938-3.142 5.938-1.625 0-1.169-4.056 1.443-12.88.457-1.571-1.022-4.842-3.287-7.29l-4.128-4.44-1.096 8.186c-1.224 9.262-1.534 8.66-2.722-5.5-.931-11.235-3.799-18.269-7.452-18.269-1.333 0-2.43-.858-2.43-1.9 0-1.06-1.935-3.855-4.291-6.211-2.375-2.375-4.914-5.828-5.663-7.692-1.242-3.05-1.552-2.941-3.287 1.188-1.626 3.855-2.046 4.056-2.703 1.279-.439-1.809 0-4.275.986-5.481 2.1-2.613.091-8.66-4.018-12.076-1.754-1.462-2.941-5.225-2.941-9.409 0-3.836-.822-7.49-1.827-8.111-1.004-.621-1.9-4.568-2.009-8.788-.091-4.202-.84-9.7-1.644-12.222-1.315-4.129-1.48-3.928-1.644 2.083-.11 4.11-1.223 7.07-2.922 7.71-3.324 1.278-3.763-3.526-.457-5.08 1.827-.84 1.827-1.278 0-2.119-2.703-1.26-3.086-8.075-.456-8.075 1.004 0 1.826-1.169 1.826-2.594 0-1.425.932-2.886 2.064-3.27 2.722-.895.329-15.237-3.141-18.708-1.407-1.406-2.576-3.818-2.576-5.353 0-1.534-2.045-5.827-4.566-9.518-2.502-3.709-4.566-7.783-4.566-9.08 0-3.58-4.293-4.202-6.795-.968-1.461 1.918-2.228 2.138-2.283.621-.091-3.562-7.355-2.777-7.355.804 0 2.686-.34 2.63-2.618-.457-2.272-3.069-2.272-3.617 0-4.129 1.44-.328 2.618-1.772 2.618-3.197 0-1.443 1.644-2.612 3.653-2.612 2.009 0 3.647-.786 3.647-1.736 0-3.05-4.175-11.053-5.768-11.053-.842 0-1.532-1.644-1.532-3.653 0-2.01-.618-3.654-1.37-3.654-.755 0-2.946-4.933-4.873-10.962-1.925-6.029-4.185-10.961-5.021-10.961-.837 0-1.522-1.882-1.522-4.202 0-2.302-.767-4.988-1.704-5.938-.937-.95-1.896-12.368-2.13-25.358l-.427-23.622-8.373-8.367c-6.994-6.997-12.937-17.392-12.937-22.617 0-.676 2.466-1.243 5.48-1.243 3.99 0 5.486-.858 5.506-3.197.017-1.754.888-4.42 1.938-5.937 1.42-2.028 1.61-1.224.74 3.197-1.074 5.462-.789 5.937 3.494 5.937 2.565 0 10.574 2.887 17.8 6.395 7.223 3.526 14.718 6.394 16.654 6.394 1.954 0 6.064 1.809 9.169 4.02 3.835 2.74 5.881 3.324 6.374 1.826 1.443-4.348 4-2.064 3.398 3.051-.494 4.293-.019 5.079 2.684 4.385 1.809-.475 3.599-2.23 3.964-3.873.511-2.23 1.607-1.48 4.22 2.923 1.935 3.27 4.95 6.412 6.703 6.978 1.771.567 3.25 2.412 3.324 4.111.11 2.485.438 2.375 1.698-.585 1.516-3.507 1.571-3.507 1.7.366.163 5.006 3.853 13.336 5.899 13.336.858 0 1.534-.822 1.534-1.827a1.832 1.832 0 0 0-1.827-1.826c-1.004 0-1.826-3.69-1.826-8.222 0-6.083.712-8.22 2.74-8.22 1.516 0 2.813 1.022 2.904 2.283.073 1.26.402 7.636.694 14.159.749 15.967 1.15 17.666 4.183 17.666 1.917 0 2.301-1.462 1.497-5.645-2.867-14.634-3.013-17.85-.712-17.082 1.26.42 2.448 3.562 2.612 6.96.164 3.399 1.224 6.504 2.338 6.87 2.52.84 2.685 7.673.183 7.673-2.375 0-2.375 8.586 0 10.048 1.004.621 1.826-.146 1.826-1.717 0-1.572.822-2.85 1.827-2.85 1.004 0 1.826 2.375 1.826 5.261 0 2.887 1.242 6.285 2.74 7.527 1.735 1.443 2.63 5.042 2.447 9.81-.274 7.4-.292 7.436-1.06 1.152-1.387-11.473-7.78-15.237-7.78-4.568 0 3.526.895 6.395 1.954 6.395 1.078 0 1.809 1.845 1.626 4.11-.183 2.266-.183 6.175 0 8.678.31 4.238.457 4.312 1.954.913 1.26-2.868 1.553-2.21 1.334 3.106-.238 5.609.876 7.91 6.466 13.337 3.726 3.617 6.758 7.234 6.758 8.057 0 .822 1.48 3.452 3.287 5.864 1.809 2.393 4.822 8.057 6.722 12.57 1.881 4.53 4.511 9.426 5.845 10.906 2.045 2.247 2.447 1.26 2.593-6.394.347-17.283 1.59-24.28 5.425-30.784 3.032-5.152 3.78-9.153 3.489-18.909-.676-22.891 2.064-46.769 5.589-48.961.822-.493.73-3.563-.201-6.815-2.265-7.855-2.174-28.244.128-29.669 1.004-.621 1.826-2.375 1.826-3.891 0-1.517 1.206-3.965 2.667-5.426 2.685-2.686 1.918-7.892-1.48-10.176-1.059-.694-1.771-10.25-1.698-22.654.11-17.703.64-21.722 3.05-23.074 4.457-2.485 3.854-8.66-.712-7.472-2.576.676-3.653.055-3.653-2.12 0-2.283.986-2.758 3.817-1.863 4.146 1.316 10.795-4.183 10.795-8.915 0-1.443 1.242-3.088 2.74-3.672 3.561-1.37 3.561-8.276 0-9.646-1.498-.567-2.74-2.631-2.74-4.586 0-1.955-2.046-5.755-4.566-8.464-5.06-5.47-5.151-5.759-2.96-9.243 1.26-1.973 3.507-1.529 11.58 2.284 5.498 2.605 10.941 4.737 12.11 4.737 1.151 0 2.1 1.233 2.1 2.74 0 1.508.731 2.741 1.626 2.741.895 0 2.996 2.921 4.695 6.484 1.698 3.58 4.968 7.216 7.287 8.093 2.302.877 6.028 4.55 8.238 8.13 3.872 6.284 7.379 7.234 7.379 2.01 0-1.37.877-2.777 1.936-3.125 1.06-.365 1.954-5.078 2.01-10.486.036-6.358.638-8.93 1.661-7.271 1.279 2.046 2.302 2.119 5.151.365 2.85-1.772 3.982-1.68 5.754.457 1.552 1.863 1.607 2.649.164 2.649-8.347 0-11.197 2.996-11.197 11.784 0 4.622-.968 8.458-2.283 9.08-1.826.84-1.826 1.278 0 2.119 1.26.584 2.283 2.155 2.283 3.47 0 1.316 1.078 2.796 2.393 3.307 1.315.512 3.398 4.257 4.621 8.331 2.777 9.3 5.772 11.437 5.772 4.13 0-3.344-1.26-6.212-3.196-7.29-2.594-1.462-3.105-3.965-2.777-13.209.494-13.209 4.676-18.78 5.663-7.563.31 3.726-.293 7.051-1.37 7.417-3.452 1.15-2.1 8.02 2.356 12.003 3.507 3.142 4.164 5.17 3.452 10.724-.475 3.763-1.607 6.85-2.502 6.85-2.1 0-2.1 6.65 0 10.633 2.776 5.225 3.324 28.72.657 28.19-1.607-.329-2.283 2.521-2.283 9.591 0 6.815-.73 10.067-2.283 10.085-1.644.018-1.699.383-.183 1.37 1.15.73 3.47 12.752 5.151 26.728 2.539 20.955 2.648 25.65.658 26.91-1.991 1.261-1.973 1.535.09 1.572 1.919.018 2.23 1.772 1.352 7.326-.712 4.476-.456 7.307.676 7.307 1.023 0 1.845-1.644 1.845-3.654s.767-3.653 1.699-3.653c.931 0 2.064-1.444 2.52-3.197.475-1.754.932 1.114 1.06 6.394.11 5.28 1.023 9.591 2.027 9.591 1.005 0 1.827 2.065 1.827 4.567 0 2.522-.822 4.568-1.827 4.568-1.004 0-1.826 2.466-1.826 5.48 0 3.161.968 5.5 2.283 5.518 1.552.018 1.424.566-.384 1.717-2.301 1.443-2.1 2.74 1.37 8.897 5.133 9.135 5.279 16.114.384 17.667-4.731 1.498-4.731 6.394 0 6.394 2.027 0 3.653-1.224 3.653-2.74 0-2.796 4.566-3.855 5.954-1.37.42.748.457.2.091-1.225-.383-1.425.238-3.16 1.352-3.855 2.758-1.699-1.15-16.204-4.749-17.593-1.461-.548-2.648-2.612-2.648-4.585 0-1.955.822-3.051 1.826-2.43 1.005.62 1.827-.567 1.827-2.631s-.822-3.764-1.827-3.764c-3.087 0-2.027-5.28 1.827-9.134 4.767-4.75 6.191-4.622 4.73.457-1.918 6.668-2.392 19.73-.767 20.753.84.512 1.516 2.522 1.516 4.476 0 1.955.548 3.545 1.224 3.545 2.63 0 7.909-6.212 7.909-9.318 0-1.79.767-3.727 1.717-4.311.931-.585 1.589-2.631 1.443-4.55-.33-4.493-3.16-2.85-3.16 1.846 0 1.955-1.224 3.544-2.74 3.544-3.744 0-3.452-5.462.438-8.312 3.014-2.193 3.014-2.503 0-5.828-4.055-4.476-3.982-5.317.548-6.504 2.923-.767 3.489-1.955 2.594-5.5-.621-2.484-.329-5.005.64-5.608 2.611-1.607 4.072 6.047 2.739 14.396-1.06 6.669-.895 7.089 1.881 4.805 1.662-1.388 3.032-3.635 3.032-5.024 0-1.388.658-2.521 1.461-2.521.804 0 2.503-2.868 3.781-6.394 1.26-3.508 3.489-6.394 4.932-6.394 4.164 0 3.032-3.545-1.863-5.774-4.292-1.954-4.457-2.703-4.22-18.232.147-8.897.914-16.187 1.736-16.187 1.48 0 2.41 12.77 1.625 22.563-.566 7.088 5.991 13.592 9.827 9.756 2.612-2.613 2.046-9.281-1.15-13.374-1.005-1.315-.603-2.466 1.113-3.124 1.973-.749 3.05.695 3.91 5.28.638 3.471 2.136 6.303 3.305 6.303 2.375 0 8.42-6.43 8.42-8.952 0-.895 1.242-2.083 2.74-2.667 1.516-.585 2.74-2.156 2.74-3.49 0-3.398 4.292-12.258 5.936-12.277.767-.018 1.37-1.242 1.37-2.758 0-1.498-.712-2.74-1.59-2.74-2.246 0-4.09-13.081-2.154-15.42.876-1.06 1.972-3.982 2.41-6.504.475-2.667.786-1.534.768 2.74-.092 14.196.511 17.357 3.306 17.357 1.516 0 2.74-1.133 2.74-2.522 0-1.388 1.643-2.96 3.652-3.489 3.8-.987 5.279-5.298 1.535-4.494-1.315.292-2.192-2.302-2.283-6.815-.128-5.846.548-7.399 3.433-7.965 3.087-.603 3.252-.292 1.224 2.156-3.16 3.8-.931 10.34 3.525 10.34 1.936 0 3.525-.822 3.525-1.827a1.832 1.832 0 0 0-1.826-1.827 1.832 1.832 0 0 1-1.827-1.827c0-1.005 1.352-1.827 3.014-1.827 2.594 0 2.85-1.735 1.9-13.245-.713-8.842-.53-11.875.603-9.134.913 2.265 2.52 4.11 3.561 4.11 2.63 0 2.375 17.064-.31 19.73-2.74 2.76-1.114 2.796 4.73.129 3.599-1.644 4.402-3.16 3.873-7.308-.786-6.193 1.808-7.052 3.415-1.133 1.078 4.02 1.17 4.001 3.854-1.114 1.516-2.887 2.758-6.851 2.758-8.842 0-2.083.95-3.252 2.283-2.777 4.786 1.717 8.621-2.174 7.525-7.637-.584-2.96-.164-5.755.968-6.467 1.26-.767 2.01.493 2.01 3.435 0 5.389-.073 5.352 6.74 2.557 2.83-1.15 5.954-2.174 6.958-2.283 2.722-.256 3.124-1.608 1.626-5.518-1.315-3.434-1.37-3.434-2.557-.055-1.078 3.07-1.516 2.85-3.8-1.881-1.406-2.96-5.04-6.632-8.054-8.167-3.014-1.553-5.881-3.233-6.393-3.727-.493-.511-3.982-3.233-7.763-6.047l-6.849-5.097-.274 4.202c-.164 2.32-.274 5.189-.237 6.376.036 1.188-.895 2.54-2.064 2.996-2.557.987-3.617-7.545-1.297-10.468.877-1.096.931-3.654.128-5.663-.804-2.01-1.535-2.704-1.608-1.535-.091 1.608-1.46 1.626-5.607.073-3.909-1.48-5.187-2.96-4.475-5.188.64-2.028-.256-3.49-2.575-4.239-1.973-.621-4.019-2.32-4.585-3.8-.603-1.553-3.415-2.667-6.703-2.667-3.105 0-6.813-1.023-8.201-2.284-6.977-6.266-8.658-7.143-11.927-6.285-4.293 1.115-4.567-.31-.64-3.197 2.485-1.808 1.9-2.612-4.11-5.681-3.853-1.955-7.269-4.13-7.58-4.805-.31-.694-4.84-3.965-10.045-7.271-5.206-3.31-10.484-7.27-11.726-8.799-1.863-2.309-2.52-2.36-3.872-.303-1.023 1.551-3.087 2.017-5.516 1.246-5.17-1.64-4.987-4.628.219-3.69 3.982.716 4 .657.566-1.932-1.954-1.468-5.827-2.67-8.603-2.67-2.813 0-6.667-1.73-8.676-3.888-2.502-2.684-5.06-3.61-8.292-2.993-3.817.73-4.676.185-4.676-2.965-.018-2.402-2.173-5.084-5.735-7.11-6.192-3.532-9.973-2.487-4.767 1.32 3.872 2.827 4.073 5.889.62 9.338-1.406 1.418-2.94 3.621-3.397 4.894-.456 1.274-1.534 1.663-2.374.863-.859-.799-.566-3.05.657-4.999 2.96-4.737 2.795-6.51-.986-11.012-2.959-3.52-13.388-9.025-17.114-9.025-2.904 0-1.68 3.363 1.589 4.375 1.772.544-.95.663-6.028.263-5.077-.402-10.429.024-11.872.943-1.99 1.253-2.046 1.677-.256 1.697 1.315.016 1.882.851 1.26 1.856-1.735 2.823-6.392 2.158-6.392-.913 0-2.235-3.05-2.74-16.567-2.74-12.292 0-17.278-.708-19.306-2.741-3.945-3.948-7.963-3.374-7.963 1.136 0 3.342-.402 3.545-2.904 1.46-4.786-3.968-10.028 4.357-9.553 15.173.2 4.75-.201 9.204-.895 9.896-.694.694-1.26.243-1.26-1.001 0-1.586-.822-1.442-2.74.479-1.498 1.507-2.722 4.238-2.703 6.067.018 2.815.292 2.906 1.79.588 1.351-2.083 1.844-1.204 2.082 3.652.182 3.526.64 8.459 1.023 10.962.749 4.804.931 14.286.53 26.49l-.238 7.308-1.973-5.938c-1.06-3.27-2.648-5.937-3.507-5.937-.858 0-1.57-1.224-1.57-2.74 0-1.517 1.625-2.741 3.653-2.741 4.803 0 4.876-6.248.11-9.573-2.594-1.827-3.508-4.567-3.435-10.25.146-9.932-1.114-11.017-6.685-5.79-4.475 4.22-4.475 4.274-.895 7.38 3.836 3.343 4.804 7.271 1.772 7.271-1.005 0-1.826-1.224-1.826-2.74a2.748 2.748 0 0 0-2.74-2.74c-1.498 0-2.74-1.243-2.74-2.76 0-2.301-.603-2.374-3.653-.474-4.621 2.886-4.621 5.39 0 8.714 3.836 2.759 4.968 7.308 1.827 7.308-1.005 0-1.827-.804-1.827-1.79 0-.987-2.046-2.302-4.566-2.942-2.703-.676-4.567-2.448-4.567-4.366 0-3.051-.401-3.033-7.05.256l-7.068 3.507.639 10.195c.749 12.13-.11 14.085-4.859 11.107-4.383-2.74-4.822-7.198-.548-5.553 2.594 1.004 2.868.09 1.973-6.614-1.224-9.08-1.662-9.737-5.644-8.221-2.283.877-3.014 3.562-3.014 11.162 0 7.217-.639 9.793-2.283 9.208-1.242-.438-2.045-2.357-1.753-4.257.329-2.1-.018-2.667-.913-1.425-.786 1.115-3.288 2.613-5.571 3.325-3.544 1.097-4.274.494-5.242-4.33-1.26-6.302-2.777-6.905-6.941-2.74-3.434 3.435-3.763 8.057-.585 8.203 1.26.073.439.859-1.826 1.772-2.247.914-4.11 2.485-4.11 3.49 0 1.004-1.223 1.352-2.74.767-1.497-.566-2.74-2.192-2.74-3.6 0-1.388-1.643-2.539-3.652-2.539-2.01 0-3.648 1.097-3.648 2.43 0 1.352-1.27 2.448-2.818 2.448-1.55 0-2.437-1.004-1.97-2.21.638-1.663-.967-1.809-6.542-.548-8.792 1.973-19.225 7.27-13.328 6.76 2.01-.165 5.105.328 6.88 1.095 1.774.768 5.301 1.005 7.835.53 2.85-.548 4.354-.128 3.943 1.115-.66 1.973-11.912 2.01-21.744.073-7.447-1.48-19.745 11.51-19.745 20.845 0 1.955-1.211 4.567-2.692 5.791-1.48 1.224-3.23 5.225-3.887 8.897-.658 3.673-1.887 7.911-2.733 9.41-2.224 3.963-1.937 8.53 2.653 42.018zm3.92-47.5c1.506 0 2.739 1.096 2.739 2.43 0 1.352-1.233 2.448-2.74 2.448-1.507 0-2.74-1.096-2.74-2.448 0-1.334 1.233-2.43 2.74-2.43zm2.016 57.128c.606.603.672 2.193.144 3.508-.583 1.461-1.016 1.023-1.103-1.115-.08-1.918.352-2.996.959-2.393zm6.544 80.312c3.388 1.132 3.949 5.06.723 5.06a2.896 2.896 0 0 1-2.891-2.886c0-1.59.975-2.576 2.168-2.174zm4.117-29.651c1.447 0 3.14.822 3.76 1.827.622 1.005-.564 1.827-2.631 1.827-2.07 0-3.761-.822-3.761-1.827s1.184-1.827 2.632-1.827zm2.848 47.5c1.004 0 1.826 1.279 1.826 2.85 0 1.57-.822 2.338-1.826 1.717-2.364-1.461-2.364-4.567 0-4.567zm3.653-175.093c2.511 0 3.538.42 2.283.914-1.257.511-3.312.511-4.567 0-1.256-.493-.228-.914 2.284-.914zm-1.137 166.543c1.385.53 3.445.036 4.58-1.096 1.532-1.535 2.864-1.26 5.18 1.041 2.94 2.941 2.913 3.124-.47 3.27-1.973.073-5.437.475-7.697.895-2.87.53-4.11-.11-4.11-2.155 0-1.736 1.025-2.54 2.517-1.955zm7.53 7.892c3.545 1.352 3.545 4.312 0 4.312-1.508 0-2.74-1.206-2.74-2.686 0-1.626 1.07-2.265 2.74-1.626zm13.698-28.573c1.005 0 1.827.822 1.827 1.827a1.832 1.832 0 0 1-1.827 1.827 1.832 1.832 0 0 1-1.826-1.827c0-1.005.822-1.827 1.826-1.827zm10.395 20.133c2.824 0 6.367.822 7.865 1.79 2.045 1.315 1.023 1.772-4 1.809-3.704 0-7.246-.804-7.867-1.809-.652-1.06 1.041-1.809 4.002-1.79zM65.066 95.73c1.004-.622 1.826-.256 1.826.803 0 1.06-.822 1.937-1.826 1.937-2.342 0-2.342-1.297 0-2.74zm10.04 202.13c7.744-.402 8.22-.146 8.22 4.33 0 3.015.748 4.312 2.027 3.508 1.388-.859 1.589.11.639 3.106-.767 2.375-1.461 6.394-1.57 8.897-.311 7.71-3.526 3.27-3.964-5.481-.238-4.512-.512-8.842-.603-9.591-.091-.75-3.05-1.37-6.576-1.37-9.362 0-7.804-2.905 1.827-3.399zm17.352 55.466c1.004.621 1.826 1.955 1.826 2.96 0 1.004-.822 1.315-1.826.694-1.005-.622-1.827-1.955-1.827-2.96s.822-1.315 1.827-.694zm.913 30.692c1.516-2.137 2.247-5.207 1.644-6.796-.621-1.59-.292-2.887.712-2.887 3.361 0 4.037 5.664 1.297 10.962-2.393 4.64-2.393 5.554.018 7.984 2.722 2.703 3.69 6.631 1.644 6.631-1.625 0-7.927-7.947-7.982-10.103-.036-1.023 1.17-3.635 2.667-5.79zm.913-241.702c1.005 0 1.827 1.242 1.827 2.74 0 1.517-.822 2.74-1.827 2.74-1.004 0-1.826-1.223-1.826-2.74 0-1.498.822-2.74 1.826-2.74zm2.594-25.577c1.644 0 3.47 1.224 4.055 2.722.566 1.517 1.79 2.284 2.685 1.736.895-.566 1.625-.347 1.625.457-.018 1.772-9.114 6.248-9.15 4.512-.019-.658-.53-3.05-1.133-5.316-.804-3.051-.31-4.11 1.918-4.11zm4 27.897c.603.603.658 2.193.146 3.508-.584 1.462-1.023 1.023-1.114-1.114-.073-1.919.347-2.997.968-2.394zm.2 268.54c.421 2.777.403 6.887-.017 9.134-.439 2.248-.786-.018-.767-5.042.018-5.024.365-6.87.785-4.092zm7.197-290.043c2.777-3.489 2.85-3.398 1.809 2.302-1.297 6.997 1.844 15 5.954 15.2 1.9.092 2.119.475.621 1.06-1.242.512-2.283 3.325-2.283 6.248 0 4.11-.822 5.335-3.653 5.335-4.42 0-4.767-2.85-.621-5.17 3.489-1.937 1.954-8.514-1.68-7.144-3.526 1.352-3.654-13.391-.147-17.83zm5.389 32.465c.602.603.657 2.192.146 3.508-.585 1.461-1.023 1.023-1.114-1.115-.074-1.918.347-2.996.968-2.393zm8.822 293.641c.456 0 1.315.822 1.936 1.827.62 1.005.255 1.827-.804 1.827-1.06 0-1.936-.822-1.936-1.827s.365-1.827.804-1.827zm16.767 31.295c2.082-1.826 3.36-1.954 4.877-.456 1.497 1.516 1.205 2.046-1.078 2.046-1.99 0-3.105 1.48-3.123 4.11-.019 3.325-.366 3.581-1.808 1.37-2.302-3.562-2.21-4.092 1.132-7.07zm15.306-240.477c1.114-.676 1.827 1.808 1.827 6.284 0 4.074-.822 7.417-1.827 7.417-2.374 0-2.374-12.222 0-13.701zm3.105-120.194c2.1-1.242 9.68 1.9 9.68 4.02 0 3.544-3.25 3.672-7.16.292-2.191-1.9-3.324-3.837-2.52-4.312zm-.475 6.01c.457 0 1.315.823 1.936 1.828.621 1.005.256 1.827-.803 1.827-1.06 0-1.936-.822-1.936-1.827s.365-1.827.803-1.827zm3.58-16.058c1.407 1.297 2.155 2.996 1.699 3.764-1.26 2.082-4.256-.31-4.256-3.417 0-2.21.457-2.283 2.557-.347zm2.923-13.702c3.324-.858 3.653-.055 3.653 8.916 0 8.952.383 9.883 4 9.883 3.908 0 3.908.073.493 2.576-4.968 3.636-6.32 2.065-6.32-7.307 0-5.573-.858-8.496-2.74-9.226-3.835-1.462-3.397-3.71.914-4.842zm-.987 34.602c1.772-.676 3.38-.018 4.019 1.663 1.607 4.165-.895 5.554-4.128 2.32-2.557-2.576-2.557-2.96.11-3.983zm-1.443 96.864c1.699-1.7 4.256-1.517 4.256.292 0 .84-1.224 1.535-2.74 1.535-3.105 0-3.214-.147-1.516-1.827zm1.516 7.91c1.845 0 2.74 1.845 2.74 5.609 0 4.987-.292 5.316-2.74 2.868-3.525-3.526-3.525-8.477 0-8.477zm2.137 15.84c2.265-2.266 4.658-1.243 3.599 1.516-1.608 4.184.639 8.221 4.566 8.221 1.936 0 4.183-1.772 4.986-3.964 1.06-2.869 1.863-3.325 2.904-1.644 1.717 2.776-2.392 11.089-5.48 11.089-1.223 0-3.58 1.845-5.26 4.11l-3.05 4.111.987-4.841c.547-2.65-.238-7.18-1.736-10.048-3.068-5.883-3.233-6.833-1.516-8.55zm9.608-217.788c2.064 1.273 4.475-5.54 2.886-8.122-2.21-3.56 1.169-5.821 3.634-2.445 1.991 2.722 1.937 4.164-.328 8.545-1.736 3.348-2.503 8.86-2.1 15.128.474 7.637.054 9.647-1.827 8.916-1.334-.512-2.777-.932-3.197-.932-.42 0-.767-4.987-.767-11.067 0-6.343.73-10.622 1.699-10.023zm3.306 204.177c.383-6.632 1.388-11.016 2.392-10.395 2.722 1.68 2.046 16.205-.95 20.15-1.46 1.956-2.538 3.143-2.374 2.632.165-.494.585-6.066.932-12.387zm7.799-109.104c.986-.62 1.808-.2 1.808.932 0 1.133 1.279 3.343 2.85 4.914 1.57 1.572 2.392 4.038 1.826 5.5-.566 1.46-1.023 3.818-1.023 5.243 0 1.425-.913 2.594-2.027 2.594-1.187 0-1.626-1.644-1.023-3.928.566-2.174-.146-6.23-1.607-9.043-1.663-3.216-1.955-5.5-.804-6.212zm1.315-83.123c.585 1.507 1.717 3.177 2.539 3.725 2.027 1.334 6.813 20.407 5.79 23.11-1.68 4.404-5.352.403-4.566-4.969.438-2.96-.53-8.696-2.137-12.751-1.626-4.056-2.886-8.373-2.813-9.61.091-1.315.584-1.11 1.187.495zm-.22 16.934c.604.603.658 2.192.147 3.507-.585 1.462-1.023 1.024-1.114-1.114-.073-1.918.347-2.996.968-2.393zm0 98.654c.604.603.658 2.192.147 3.507-.585 1.462-1.023 1.023-1.114-1.114-.073-1.918.347-2.996.968-2.393zm0 14.615c.604.603.658 2.192.147 3.508-.585 1.461-1.023 1.023-1.114-1.115-.073-1.918.347-2.996.968-2.393zm2.028-143.448c.859-5.684 4.165-6.89 4.165-1.52 0 4.774-1.863 9.284-3.836 9.284-.913 0-1.516-.617-1.37-1.37.165-.754.621-3.632 1.041-6.394zm5.991 15.072a1.83 1.83 0 0 1 1.827 1.825 1.832 1.832 0 0 1-1.827 1.827 1.832 1.832 0 0 1-1.826-1.827 1.83 1.83 0 0 1 1.826-1.825zm7.197-27.404c1.077 0 1.936.822 1.936 1.827 0 2.34-1.297 2.34-2.74 0-.621-1.005-.256-1.827.804-1.827zm.2 32.883c.95 0 1.736 3.435 1.736 7.618 0 4.184-.512 7.089-1.15 6.45-1.937-1.937-2.448-14.068-.585-14.068zm33.7 442.115c1.516 0 2.74.804 2.74 1.772 0 .969-1.224 1.298-2.74.713-3.507-1.334-3.507-2.485 0-2.485zm.584-464.75c.859-.529 1.242-3.67.877-6.978l-.694-6.018 2.74 5.976c2.666 5.8 2.246 11.38-.859 11.38-2.283 0-3.836-3.265-2.064-4.36zm10.685 23.998c.493 1.26.493 3.307 0 4.567-.511 1.26-.931.238-.931-2.284 0-2.502.42-3.544.931-2.283zm4.146-17.81c1.078 0 1.936.821 1.936 1.826 0 2.34-1.296 2.34-2.74 0-.62-1.005-.255-1.827.804-1.827zm1.918-20.097c1.918 0 4.092 8.822 2.703 11.046-2.155 3.5-3.78 1.59-3.963-4.652-.091-3.517.475-6.394 1.26-6.394zm14.63 24.053c2.759.921 3.05 3.859.457 4.721-1.242.418-2.283-.61-2.283-2.284 0-1.675.822-2.771 1.827-2.437zm8.476 2.792c1.46-1.46 4.31.19 4.31 2.494 0 .944-1.224 1.719-2.74 1.719-2.813 0-3.616-2.156-1.57-4.213zm2.484 113.826c1.004 0 1.826-1.644 1.826-3.654s.822-3.653 1.827-3.653c2.374 0 2.374-8.569 0-10.049-1.005-.62-1.827-2.356-1.827-3.873 0-1.498.822-2.228 1.827-1.607 1.04.64 1.826-.84 1.826-3.398 0-2.485-.895-4.823-1.99-5.189-2.12-.694-2.302-3.033-1.663-21.1.292-8.35 1.078-11.42 2.94-11.42 1.9 0 2.54 2.814 2.54 10.962 0 6.084-.804 10.962-1.827 10.962-1.005 0-1.826 1.242-1.826 2.74 0 1.517.821 2.74 1.826 2.74 1.096 0 1.827 7.345 1.827 18.38 0 10.358-.713 17.94-1.626 17.374-2.283-1.425-3.854 3.434-3.854 11.893 0 3.946-.822 7.161-1.826 7.161-1.005 0-1.827-4.11-1.827-9.134s.822-9.135 1.827-9.135zm0 23.75c1.004 0 1.826 1.663 1.826 3.709 0 2.046 1.242 4.184 2.74 4.768 1.57.603 2.74 3.325 2.74 6.34 0 2.904.822 5.28 1.826 5.28 1.005 0 1.827.876 1.827 1.936s-.75 1.461-1.68.895c-.932-.584-2.065.402-2.54 2.174-.456 1.772-.931.548-1.04-2.722-.11-3.27-1.042-5.937-2.046-5.937-1.005 0-1.827-1.645-1.827-3.654 0-2.01-.822-3.654-1.826-3.654-1.005 0-1.827-2.046-1.827-4.567 0-2.503.822-4.568 1.827-4.568zm4.566-144.986c3.543 1.36 3.543 4.315 0 4.315-1.498 0-2.74-1.208-2.74-2.684 0-1.633 1.078-2.272 2.74-1.631zm-.365 36.686c2.648-1.023 3.105.037 3.105 6.96 0 6.048-.713 8.167-2.74 8.167a2.748 2.748 0 0 1-2.74-2.74c0-1.498.822-2.74 1.827-2.74 2.593 0 2.283-6.852-.366-7.729-1.37-.456-1.023-1.187.914-1.918zm4.931-15.017c1.005.621 1.827.22 1.827-.914 0-1.114.822-1.534 1.826-.913 3.087 1.918 2.028 4.567-1.826 4.567-2.01 0-3.653-.877-3.653-1.936 0-1.06.822-1.425 1.826-.804zm0 158.029c1.005 0 1.827.822 1.827 1.827a1.832 1.832 0 0 1-1.827 1.827 1.832 1.832 0 0 1-1.826-1.827c0-1.005.822-1.827 1.826-1.827zm3.525-51.154c.932 0 1.991-1.443 2.356-3.197.347-1.754.621 1.553.585 7.38-.055 7.454.73 11.072 2.667 12.296 1.826 1.15 1.972 1.754.456 1.772-3.105.036-2.867 3.343.457 6.668 3.817 3.818 5.443 11.473 2.977 13.94-1.534 1.534-2.064.858-2.064-2.595 0-2.557-1.57-6.467-3.507-8.696-2.593-2.996-3.25-5.718-2.502-10.34.657-4.038.274-6.267-1.06-6.267-1.132 0-2.063-2.466-2.063-5.48 0-3.015.767-5.481 1.698-5.481zm3.324-23.604c1.26-.073 2.338-1.59 2.411-3.343.074-2.23.658-1.827 1.937 1.37.986 2.503 1.278 8.459.62 13.209-1.022 7.435-1.552 8.276-3.762 6.065-1.406-1.407-2.557-3.654-2.539-4.987.018-1.773.493-1.7 1.79.328 1.333 2.047 1.79 1.042 1.808-3.964.019-3.672-1.004-7.107-2.265-7.618-1.826-.731-1.826-.95 0-1.06zm5.48-98.451c3.671.707 3.251 3.868-.603 4.432-1.424.208-2.593-.842-2.593-2.335 0-1.6 1.315-2.46 3.196-2.097zM299.821 51c1.534 1.279 2.411 2.686 1.936 3.143-1.26 1.278-4.73-1.298-4.73-3.508 0-1.206 1.059-1.078 2.794.365zm.146 157.572c.603.603.658 2.193.146 3.508-.584 1.462-1.022 1.023-1.114-1.114-.073-1.919.347-2.997.968-2.394zm5.078 251.038c1.772-.676 2.265.091 1.607 2.558-1.06 4.037-4.146 4.768-4.146.968 0-1.407 1.15-2.978 2.539-3.526zm1.808-291.577c1.918 2.137 3.05 21.777 1.26 21.777-1.168 0-1.954-4.476-1.954-11.272 0-6.194.31-10.925.694-10.505zm3.763-115.242c.456 0 1.315.822 1.936 1.827.62 1.004.256 1.826-.804 1.826s-1.936-.822-1.936-1.826c0-1.005.365-1.827.804-1.827zm6.046-3.8c.767-.073 2.812-.402 4.566-.75 1.753-.328 3.598.055 4.091.877 1.553 2.485-1.26 18.27-3.05 17.174-.913-.567-1.534-2.394-1.37-4.074.566-5.755-.128-7.6-2.868-7.6-2.703 0-4-5.353-1.37-5.627zm3.506 177.814c1.242-3.087 4.256-2.905 4.256.256 0 1.407-1.224 3.033-2.74 3.599-2.794 1.078-3.16.183-1.516-3.855zm5.37-157.079c.603.603.658 2.192.147 3.508-.585 1.461-1.023 1.023-1.115-1.115-.073-1.918.347-2.996.968-2.393zm.713 341.142c2.374 0 2.374 4.932 0 6.394-1.005.621-1.827-.567-1.827-2.631s.822-3.763 1.827-3.763zm4.566-356.25c1.553 0 2.74 1.644 2.74 3.763 0 2.064.822 3.252 1.826 2.63 1.005-.62 1.827.147 1.827 1.718 0 3.891-2.21 3.58-5.973-.822-3.89-4.53-4.036-7.29-.42-7.29zm0 43.188c1.662-.64 2.74-.018 2.74 1.571 0 1.59-1.078 2.21-2.74 1.571-3.434-1.315-3.434-1.827 0-3.142zm2.119-16.278c.493 1.242.53 3.709.073 5.48-.475 1.773-.877.768-.913-2.246-.037-3.015.328-4.476.84-3.234zm3.068-9.19c1.553-.602 3.215.202 3.836 1.846 1.626 4.202-.438 5.334-3.726 2.046-2.502-2.503-2.502-2.96-.11-3.891zm-.73 44.578c2.447-3.947 3.671.274 4.53 15.583.858 15.292-1.918 13.337-3.507-2.466-.439-4.403-1.188-8.623-1.644-9.372-.475-.75-.183-2.43.62-3.745zm5.589 265.634c1.004-.62 1.826-.31 1.826.695 0 1.004-.822 2.338-1.826 2.96-1.005.62-1.827.31-1.827-.695s.822-2.339 1.827-2.96zm2.74-295.048c1.516 0 2.74 1.206 2.74 2.686 0 1.626-1.06 2.265-2.74 1.626-3.544-1.352-3.544-4.312 0-4.312zm2.137-10.505c1.278-3.179 4.255-2.868 4.255.457a2.736 2.736 0 0 1-2.74 2.74c-1.497 0-2.666-.2-2.593-.456.091-.256.566-1.48 1.078-2.74zm1.516 22.124c3.47 3.472 3.47 4.823 0 4.823-1.553 0-2.74-1.644-2.74-3.781 0-3.362.31-3.49 2.74-1.042zm.913 12.131c3.909 4.494 4.84 9.135 1.826 9.135-1.004 0-1.826-1.224-1.826-2.74 0-1.499-.822-2.741-1.827-2.741-1.004 0-1.826-1.772-1.826-3.928 0-3.946 0-3.946 3.653.274zm-2.539 79.051c.603.603.658 2.192.146 3.508-.584 1.461-1.023 1.023-1.114-1.115-.073-1.918.347-2.996.968-2.393zm4.365 204.415c2.52 0 3.544.42 2.283.913-1.242.512-3.306.512-4.566 0-1.242-.493-.219-.913 2.283-.913zm0 14.323c3.507 0 4.95 3.58 2.448 6.083-1.37 1.37-6.1-2.082-6.1-4.476 0-.877 1.643-1.607 3.652-1.607zm-.328-215.577c1.936-4.275 5.242-3.892 4.73.566-.237 2.192-.511 4.622-.584 5.371-.092.75-1.388 1.37-2.904 1.37-2.868 0-3.325-2.685-1.242-7.307zm3.141-14.232c2.192-1.937 2.667-1.882 2.667.31 0 4.02-2.01 8.44-3.836 8.44-2.593 0-1.772-6.156 1.17-8.75zm.859-100.864c.803-2.503 1.534-3.545 1.625-2.284.11 1.26 2.046 2.375 4.292 2.503 2.777.128 3.142.475 1.115 1.005-2.01.53-2.667 2.046-2.028 4.53.767 2.887.22 3.6-2.32 3.106-3.981-.767-4.602-2.813-2.684-8.86zm10.027 305.863c5.516.073 10.028.713 10.046 1.389.018 1.808-5.297 2.52-13.17 1.772-10.538-1.005-8.255-3.325 3.124-3.161zm-8 18.817c1.132 1.133 3.123 1.645 4.438 1.151 2.941-1.132 2.411 3.983-.73 7.125-1.772 1.79-2.612 1.681-3.964-.475-2.557-4.037-2.338-10.395.256-7.8zm11.818 22.636c5.79-4.55 8.054-4.86 8.054-1.114 0 1.68-1.698 2.74-4.401 2.74-2.43 0-4.786 1.023-5.243 2.284-.438 1.26-1.37 1.753-2.063 1.114-.695-.64.95-2.887 3.653-5.024zm1.516-32.94c1.917-.073 2.995.348 2.392.95-.602.622-2.173.676-3.488.147-1.462-.585-1.041-1.005 1.096-1.096zm7.908-310.686c1.827 0 2.411.603 1.37 1.388-1.004.75-2.43 2.101-3.196 3.015-.75.913-1.37.274-1.37-1.389 0-1.699 1.425-3.032 3.196-3.014zm-1.497 13.94c1.095-3.052 1.443-3.088 3.616-.476 2.027 2.43 1.918 3.088-.621 4.056-3.836 1.48-4.53.64-2.995-3.58zm-.457 275.865c.822 1.15 3.562 2.52 6.064 3.032 3.945.804 3.836.896-.767.64-3.014-.165-5.662-1.48-6.082-3.033-.494-1.827-.238-2.046.785-.64zm11.635 34.766c1.772-1.845 3.671-2.54 4.274-1.571 1.242 2.028-3.452 6.467-5.863 5.536-.895-.348-.183-2.138 1.589-3.965zm-.877-306.338c.438 0 2.43 1.644 4.438 3.653 3.654 3.654 3.654 3.654-.51 3.654-2.869 0-4.275-1.15-4.458-3.654-.164-2.01.073-3.653.53-3.653zm.785 250.288c.895-1.443 2.046-2.229 2.54-1.717.51.493.182 2.1-.713 3.544-.895 1.443-2.027 2.229-2.539 1.717-.493-.493-.183-2.1.712-3.544zm21.919-40.192c1.004 0 1.826.822 1.826 1.827a1.832 1.832 0 0 1-1.826 1.827 1.832 1.832 0 0 1-1.827-1.827c0-1.005.822-1.827 1.827-1.827zm8.365 71.962c1.589.621 3.653 1.115 4.566 1.115.932 0 1.68 1.242 1.68 2.74 0 1.7-1.716 2.74-4.566 2.74-3.415 0-4.566-.968-4.566-3.854 0-2.759.822-3.526 2.886-2.74zm7.05-6.193c1.936 0 2.74 3.508 1.06 4.55-1.023.639-1.863-.129-1.863-1.7s.365-2.85.803-2.85zm6.503-135.192c2.009 0 3.653.822 3.653 1.827 0 1.004-1.644 1.827-3.653 1.827-2.01 0-3.653-.823-3.653-1.827 0-1.005 1.643-1.827 3.653-1.827zm.255 21.082c3.452 1.097 3.763.713 2.74-3.416-1.498-5.937 1.388-7.892 3.726-2.54 2.302 5.28-.785 11.181-6.265 11.93-3.141.439-4.11-.328-4.11-3.306 0-3.143.75-3.654 3.91-2.668zm.731 58.389c2.447-2.01 4.475-4.732 4.475-6.047.018-1.316.84-1.882 1.845-1.26 2.539 1.57 2.301 8.86-.366 11.509-2.392 2.393-10.648 3.032-10.502.822.036-.75 2.082-3.015 4.548-5.024zm2.667 29.23c1.004-.62 1.826.147 1.826 1.718s-.822 2.85-1.826 2.85c-2.357 0-2.357-3.106 0-4.567zm5.48-165.866c4.693 1.224 4.693 2.357 0 2.357-2.01 0-3.654-.749-3.654-1.663 0-.895 1.644-1.224 3.653-.694zm1.826 29.76c1.004 0 1.826-1.223 1.826-2.74 0-1.498.822-2.74 1.827-2.74 1.004 0 1.826 1.644 1.826 3.654 0 2.43-1.205 3.654-3.653 3.654-2.009 0-3.653-.402-3.653-.914 0-.493.822-.913 1.827-.913zm2.94-23.256c.603.603.658 2.192.146 3.508-.584 1.461-1.022 1.023-1.114-1.115-.073-1.918.347-2.996.968-2.393zm2.302 126.624c1.406-6.467 5.753-8.714 4.931-2.54-.292 2.32-1.114 5.536-1.79 7.144-.694 1.608-1.004 3.983-.712 5.262.31 1.278-.475 2.703-1.735 3.16-2.448.895-2.703-3.763-.694-13.026zm.237 28.171c1.005 0 1.827.822 1.827 1.827a1.832 1.832 0 0 1-1.827 1.827 1.832 1.832 0 0 1-1.826-1.827c0-1.005.822-1.827 1.826-1.827zm0 11.875c1.005-.62 1.827.146 1.827 1.718 0 1.57-.822 2.85-1.827 2.85-2.356 0-2.356-3.106 0-4.568zm4.767-205.035c.603.603.658 2.192.147 3.507-.585 1.462-1.023 1.023-1.115-1.114-.073-1.918.347-2.996.968-2.393zm2.54 11.381c1.004-.62 1.826-.255 1.826.804 0 1.06-.822 1.937-1.827 1.937-2.338 0-2.338-1.297 0-2.74zm1.826 73.99c1.004 0 1.826 1.28 1.826 2.85 0 1.572-.822 2.34-1.826 1.718-2.356-1.461-2.356-4.567 0-4.567zm2.137-55.227c1.06 1.06 1.57 3.014 1.132 4.33-.456 1.37-1.278.53-1.936-1.937-.785-3.032-.548-3.745.804-2.393zm-.822 25.997c.292 0 1.132-.2 1.881-.457 1.57-.53 2.302 8.934 1.041 13.702-1.644 6.34-4.146 3.033-3.799-5.024.201-4.512.585-8.22.877-8.22zm1.37 39.516c1.625.622 2.648 2.047 2.265 3.18-1.042 3.16-3.91 2.447-4.603-1.133-.439-2.284.219-2.869 2.338-2.047zm-1.352 57.731c.402-3.288 1.498-5.499 2.448-4.914 2.502 1.553 2.082 9.536-.585 10.505-1.826.676-1.826 1.333 0 3.27 2.722 2.868 3.069 15.602.457 17.21-1.114.694-1.827-2.065-1.827-7.053 0-4.494-.274-9.262-.602-10.614-.348-1.334-.293-5.115.11-8.404zm2.32-77.15c2.338 0 2.338 1.296 0 2.74-1.005.62-1.827.255-1.827-.804 0-1.06.822-1.937 1.827-1.937zm-1.023 27.403c1.936 0 2.74 3.508 1.06 4.55-1.024.639-1.864-.129-1.864-1.7s.366-2.85.804-2.85zm.31 9.628c.603.603.658 2.192.147 3.508-.585 1.461-1.023 1.023-1.115-1.115-.073-1.918.347-2.996.968-2.393zM41.333 147.389c7.208.2 16.027 8.604 18.483 17.611 1.78 6.522 2.214 6.98 3.496 3.581 2.042-5.426 12.01-6.778 16.265-2.21 4.676 5.042 8.201 12.295 6.704 13.793-1.242 1.242-2.484-.055-6.521-6.778-.895-1.498-2.301-2.065-3.087-1.279-.804.804-.62 2.028.42 2.74 2.283 1.535 9.882 17.648 9.882 20.937 0 1.297 1.644 3.763 3.653 5.48 2.009 1.718 3.653 4.824 3.653 6.906 0 2.065 1.698 7.49 3.78 12.058 3.836 8.44 4 10.596.64 8.313-2.466-1.7-8.073-13.848-8.073-17.539 0-1.608-.822-2.923-1.827-2.923-1.004 0-1.826-1.48-1.826-3.307s-1.571-5.005-3.507-7.088c-1.955-2.083-3.8-6.486-4.11-9.792-.676-6.778-5.169-9.848-5.169-3.545 0 3.435 4.548 13.666 7.306 16.424 2.356 2.339 5.48 9.409 5.461 12.314-.018 5.006 7.927 20.571 10.503 20.571 1.26 0 2.301 2.101 2.301 4.677 0 2.649-.785 4.184-1.826 3.544-1.005-.621-1.827-.31-1.827.694 0 1.005.84 2.357 1.863 2.978 1.023.64 1.461 1.79.968 2.576-.475.786.676 3.088 2.557 5.116 2.831 3.032 7.343 14.633 7.398 18.945 0 .584-2.01 1.991-4.475 3.124-4.238 1.918-4.713 1.516-9.133-7.838-2.557-5.407-5.48-10.358-6.484-10.98-1.004-.62-1.826-2.722-1.826-4.676 0-1.955-1.242-3.545-2.795-3.545-1.534 0-3.27-1.224-3.836-2.722-.584-1.516-1.771-2.302-2.63-1.754-.876.53.42 3.216 2.868 5.974 4.31 4.842 10.283 14.67 16.877 27.733 4.128 8.203 7.78 12.295 7.78 8.715 0-1.37-.894-3.398-1.972-4.495-1.443-1.425-1.443-2.32 0-3.215 1.954-1.206 5.626 5.883 5.626 10.888 0 1.37.822 3.015 1.826 3.636 1.041.64 1.827-.859 1.827-3.435 0-2.52-.822-5.078-1.827-5.7-2.374-1.461-2.374-10.048 0-10.048 1.005 0 1.827 2.01 1.827 4.458 0 2.448.876 5.006 1.954 5.663 1.078.676 1.516 2.339.986 3.71-.511 1.37-.164 2.977.804 3.58.95.585 1.735 2.63 1.735 4.512 0 1.9.95 4.02 2.119 4.75 1.534.932 1.753-.42.785-4.914-.73-3.435-1.717-8.276-2.173-10.797-1.498-7.929-2.74-10.962-4.493-10.962-.95 0-1.717-2.466-1.717-5.48 0-3.015-.822-5.481-1.827-5.481-1.004 0-1.826-1.206-1.826-2.686s-1.644-5.608-3.653-9.19c-2.01-3.58-3.653-7.307-3.653-8.275 0-3.197 3.379-1.864 4.548 1.79.676 2.156 2.173 3.16 3.762 2.54 3.726-1.425 3.306-4.074-1.205-7.728-2.356-1.9-3.525-4.513-3.014-6.687.804-3.49.859-3.49 2.338.092.84 2.01 3.397 5.426 5.68 7.6 2.284 2.155 5.516 8.13 7.197 13.263 1.68 5.134 3.78 9.792 4.657 10.322.895.548 1.608 5.06 1.608 10.03s.64 9.025 1.406 9.025c.767 0 2.85 4.11 4.64 9.135 1.79 5.024 4.036 9.134 4.986 9.134.968 0 1.753 1.242 1.753 2.74 0 1.517.621 2.74 1.37 2.76 1.407.017 5.936 8.659 5.936 11.308 0 4-3.616.676-5.516-5.06-1.187-3.581-3.196-6.925-4.456-7.4-1.279-.493-5.005-6.979-8.311-14.432-3.288-7.454-6.63-13.154-7.416-12.661-1.698 1.041 1.188 11.985 3.544 13.483.913.566 1.699 4.53 1.735 8.805.073 5.828-.767 8.222-3.397 9.628-2.96 1.59-3.672 1.115-4.75-3.179-.693-2.776-2.502-6.266-4-7.782-2.428-2.43-2.593-1.809-1.442 5.407.73 4.495 1.936 8.587 2.721 9.117.767.53 2.52 7.015 3.89 14.396 1.37 7.436 3.562 13.848 4.896 14.36 3.068 1.169 3.141 5.407.128 6.631-1.827.731-1.827.95 0 1.06 1.26.091 2.283 2.21 2.283 4.713 0 2.522.822 4.568 1.826 4.568 1.005 0 1.827 1.041 1.827 2.302 0 1.26 2.064 4.512 4.566 7.234 2.52 2.704 4.566 5.993 4.566 7.308 0 1.297 1.644 3.398 3.653 4.659 2.01 1.26 3.653 3.507 3.653 5.005 0 1.498.768 2.723 1.68 2.723.932 0 3.58 3.087 5.919 6.85 3.013 4.897 4.402 5.975 4.822 3.8.548-2.886-2.028-6.978-9.224-14.578-1.754-1.864-3.197-3.873-3.197-4.458 0-.603-1.643-3.179-3.653-5.737-2.009-2.539-3.653-5.846-3.653-7.326 0-1.48-1.771-4.549-3.945-6.814-5.534-5.755-11.836-30.437-7.014-27.459 1.005.621 1.827 3.508 1.827 6.395 0 2.904.822 5.773 1.826 6.394 1.005.621 1.827 2.685 1.827 4.585s1.04 4.111 2.32 4.915c1.26.804 4.274 5.371 6.685 10.158 5.46 10.851 9.26 14.469 9.26 8.824 0-2.156-1.224-4.403-2.74-4.988-1.498-.566-2.74-2.612-2.74-4.512 0-1.9-.822-3.453-1.826-3.453-1.005 0-1.827-1.645-1.827-3.654 0-2.01-.822-3.654-1.826-3.654-1.005 0-1.827-2.083-1.827-4.622 0-2.54-1.223-5.097-2.74-5.682-1.497-.566-2.74-2.96-2.74-5.316 0-2.339-.821-4.769-1.826-5.39-1.004-.62-1.826-3.087-1.826-5.48 0-2.394-.822-4.86-1.827-5.481-1.004-.621-1.826.64-1.826 2.795 0 2.302-.932 3.599-2.283 3.16-2.923-.968-4.183-14.176-1.352-14.176 1.26 0 1.59 1.498.822 3.891-.822 2.612-.566 3.471.804 2.63 1.096-.693 2.009-3.434 2.009-6.083 0-7.344 2.758-2.685 5.534 9.336 1.352 5.882 3.525 11.107 4.859 11.619 1.315.511 2.392 2.448 2.392 4.311 0 3.746 8.786 20.517 11.233 21.485.859.347 1.553 2.01 1.553 3.709 0 1.717 1.644 4.293 3.653 5.736 2.01 1.444 3.653 3.38 3.653 4.312 0 .913 1.863 3.453 4.11 5.627 7.67 7.38 15.05 16.552 14.557 18.068-.274.822.329.987 1.333.365 1.005-.602 2.338.969 2.977 3.526.64 2.558 1.991 4.64 2.996 4.64 2.027 0 .219-9.408-2.1-10.943-.768-.511-2.375-2.776-3.562-5.042-1.188-2.265-3.38-4.11-4.84-4.11-1.48 0-2.686-1.224-2.686-2.74 0-1.499-.73-2.741-1.607-2.741-.895 0-2.995-2.868-4.657-6.394-1.663-3.508-3.818-6.395-4.768-6.395-.968 0-1.753-1.041-1.753-2.302 0-1.26-1.57-3.27-3.489-4.476-1.918-1.205-4.036-4.695-4.712-7.746-.658-3.069-1.973-5.572-2.904-5.572-.913 0-1.68-1.224-1.68-2.74 0-1.498-.731-2.74-1.626-2.74-.877 0-2.137-2.796-2.776-6.212-.64-3.416-2.63-8.13-4.402-10.505-3.325-4.421-10.338-25.029-8.987-26.38.42-.42 1.882 2.612 3.251 6.74 1.352 4.13 3.544 7.93 4.859 8.423 1.315.511 2.374 3.306 2.374 6.211 0 2.905.64 5.28 1.425 5.28s2.557 3.764 3.909 8.367c1.351 4.604 3.598 8.806 4.968 9.336 1.37.53 2.484 2.832 2.484 5.134 0 2.302 1.278 4.658 2.831 5.261 1.553.603 3.69 3.563 4.749 6.595 1.06 3.015 2.63 5.5 3.525 5.5.877 0 2.776 2.265 4.201 5.023 2.831 5.445 9.187 13.246 10.776 13.246 2.229 0-.292-9.939-3.032-11.948-4.219-3.088-3.653-4.988.786-2.613 2.064 1.096 4.511 4.001 5.443 6.45.931 2.447 2.52 4.457 3.562 4.457 1.022 0 1.863 1.754 1.863 3.873 0 3.252-.439 3.508-2.74 1.608-1.571-1.316-2.74-1.48-2.74-.42 0 2.356 3.434 3.617 8.676 3.197 3.744-.311 4.128.493 4.329 8.951.11 5.098.055 10.724-.11 12.478-.2 1.827.895 3.197 2.52 3.197 1.645 0 2.85 1.553 2.85 3.654 0 2.01.621 3.654 1.37 3.672 1.37.019 5.936 8.623 5.936 11.181 0 .73-1.169 1.59-2.63 1.918-2.155.475-1.936 2.193 1.297 9.72 2.137 5.024 4.53 9.573 5.297 10.12.767.549 1.607 3.618 1.844 6.852.603 7.929 3.325 7.49 3.325-.53 0-3.508-.822-6.394-1.827-6.394-1.004 0-1.826-1.48-1.826-3.307 0-1.809-1.206-4.896-2.685-6.85-3.47-4.605-3.525-9.94-.092-9.94 3.708 0 1.516-10.851-2.995-14.834-1.845-1.626-3.36-4.238-3.36-5.828 0-1.571-.713-3.307-1.572-3.855-.876-.53-2.118-6.942-2.794-14.25-1.68-18.452-1.571-17.867-2.996-17.867-.712 0-1.826-3.91-2.484-8.678-.676-4.768-1.498-10.322-1.845-12.332-.347-2.01-.84-6.12-1.114-9.134-.274-3.015-1.096.274-1.808 7.307-.73 7.034-.785 13.21-.128 13.702 2.265 1.736 5.279 14.616 3.653 15.602-.877.548-2.539-2.74-3.69-7.307-1.607-6.358-2.94-8.295-5.716-8.295-2.813 0-3.306-.73-2.156-3.197 3.8-8.184-.274-22.38-6.447-22.38-1.078 0-1.955-.822-1.955-1.827 0-1.004 1.151-1.826 2.558-1.826 1.388 0 3.013-1.224 3.58-2.74.62-1.609.036-2.741-1.407-2.741-1.37 0-2.904-1.644-3.434-3.654-.548-2.083-.054-3.672 1.17-3.672 1.15-.018.072-1.06-2.393-2.32-2.923-1.48-5.078-4.677-6.12-9.098-.913-3.874-2.72-6.833-4.182-6.833-1.406 0-2.557-1.279-2.557-2.85 0-1.571.73-2.393 1.626-1.845 2.264 1.406 3.817-5.572 1.716-7.692-.95-.95-1.88-4.713-2.082-8.367-.2-3.891-1.278-6.632-2.63-6.632-1.242-.018-2.283-.931-2.283-2.046 0-1.114-1.315-1.498-2.94-.877-2.101.804-2.63.33-1.882-1.644.584-1.516.402-2.759-.42-2.759-.822 0-3.032-2.868-4.932-6.394-1.881-3.508-4.694-6.376-6.21-6.358-4.657.037-7.543 2.814-6.301 6.048.639 1.68.383 3.05-.567 3.05-2.502 0-5.972-8.44-5.972-14.505 0-2.85-1.06-5.609-2.375-6.12-1.315-.494-3.525-4.367-4.931-8.605-1.388-4.239-3.598-8.112-4.914-8.605-1.315-.512-2.392-2.448-2.392-4.312 0-5.791 4.785-2.046 7.342 5.737 2.393 7.235 7.27 13.428 7.27 9.226 0-1.115.822-2.046 1.826-2.046 1.005 0 1.827 1.644 1.827 3.654s.84 3.653 1.863 3.653c2.082 0 .858-6.668-2.996-16.186-1.37-3.362-2.1-6.741-1.625-7.509.456-.767-.658-2.758-2.503-4.44-1.844-1.662-4.858-6.667-6.685-11.107-1.826-4.421-4-7.636-4.822-7.143-.821.511-1.497.036-1.497-1.042 0-1.077-2.1-5.316-4.694-9.408-2.576-4.093-4.31-7.838-3.854-8.294.84-.84 8.548 9.061 8.548 10.961 0 .548 2.064 3.216 4.566 5.938 2.52 2.703 4.566 6.394 4.566 8.203 0 1.79.822 3.781 1.845 4.402 2.594 1.608 8.493 15.109 11.05 25.248 1.863 7.363 5.37 13.428 5.37 9.245 0-3.124-8.146-25.413-9.48-25.96-.821-.348-1.479-2.559-1.479-4.952 0-5.225-3.616-13.629-5.863-13.629-.895 0-2.758-2.704-4.128-6.01-5.096-12.168-19.233-21.284-19.233-12.387 0 1.937 1.078 4.604 2.393 5.938 2.685 2.722 5.333 8.805 3.817 8.805-2.447 0-6.995-7.015-10.648-16.442-.585-1.498-.694.366-.238 4.166.932 7.819 6.448 21.411 8.695 21.411.803 0 1.46.822 1.46 1.827 0 2.174-3.689 1.644-6.392-.913-1.06-1.005-3.05-5.28-4.42-9.5s-3.598-8.094-4.968-8.624c-2.831-1.077-3.416-10.194-.658-10.194 1.005 0 1.827-1.644 1.827-3.654s-.822-3.653-1.827-3.653c-1.004 0-1.826-1.225-1.826-2.74 0-1.499-1.023-2.796-2.283-2.87-1.243-.072-.877-.693.858-1.37 1.717-.675 2.539-2.137 1.826-3.251-1.753-2.686-18.192-4.787-19.603-2.503-2.333 3.763-6.269 1.498-7.951-4.604-2.707-9.792-10.54-15.547-21.193-15.547-6.667 0-4.039 6.723 2.705 6.906zm68.363 69.825c.457 0 1.315.822 1.936 1.827.622 1.004.256 1.827-.803 1.827-1.06 0-1.936-.823-1.936-1.827 0-1.005.365-1.827.803-1.827zm5.535-6.723c1.46 1.48 4.018 6.065 5.68 10.194 1.644 4.11 3.726 7.49 4.621 7.49.895 0 1.626 1.718 1.626 3.8 0 5.993-3.854 3.18-7.142-5.206-1.625-4.184-3.982-8.624-5.224-9.866-1.223-1.242-2.246-3.782-2.246-5.663 0-2.996.329-3.088 2.685-.75zm21.973 73.661c3.543 1.352 3.543 4.312 0 4.312-1.498 0-2.74-1.206-2.74-2.686 0-1.626 1.077-2.265 2.74-1.626zm9.278 9.701c1.498 3.471 2.375 7.582 1.955 9.135-.457 1.699-.84 1.187-.968-1.28-.11-2.264-1.042-4.11-2.046-4.11-1.005 0-1.79-2.265-1.754-5.024.073-4.932.128-4.914 2.813 1.28zm3.507 27.495c1.59 0 2.74 1.645 2.74 3.873 0 3.252-.438 3.508-2.74 1.608-3.507-2.905-3.507-5.48 0-5.48zm2.247-17.355c.511 2.01 1.443 4.074 2.082 4.567 1.333 1.041 13.498 25.686 16.585 33.579 2.246 5.736.95 9.043-1.845 4.731-.968-1.48-2.667-6.175-3.781-10.45-1.114-4.275-2.74-7.764-3.635-7.764-.876 0-1.607-1.571-1.607-3.508 0-1.918-.603-3.763-1.37-4.11-2.137-.95-7.78-14.068-7.543-17.557.164-2.466.401-2.338 1.114.512zm2.32 25.576c1.004-.62 1.826-.365 1.826.585 0 2.375 4.913 12.935 9.06 19.512 1.899 3.014 3.525 6.85 3.598 8.531.073 1.663 1.096 3.362 2.283 3.764 1.388.457 1.625 1.973.676 4.257-1.48 3.489-1.516 3.47-2.74-.11-3.416-10.048-6.082-15.529-7.562-15.529-.913 0-1.662-1.644-1.662-3.654s-.822-3.654-1.827-3.654c-1.004 0-1.826-1.589-1.826-3.544s-.822-4.056-1.827-4.677c-2.338-1.443-2.338-4.037 0-5.48zm1.223-30.6c.493 1.26.493 3.306 0 4.567-.511 1.26-.931.237-.931-2.284 0-2.503.42-3.544.931-2.283zm19.781 54.095c3.617 3.599 3.617 8.696 0 7.307-1.497-.566-2.74-3.069-2.74-5.553 0-4.001.311-4.202 2.74-1.754zM49.232 308.23c1.76.347 3.044-.566 3.044-2.174 0-3.38-2.977-5.444-5.576-3.837-2.672 1.663-1.138 5.299 2.532 6.011zm2.131-147.652c1.507 0 2.74-.822 2.74-1.827s-1.233-1.827-2.74-1.827c-1.507 0-2.74.822-2.74 1.827s1.233 1.827 2.74 1.827zm1.827 37.945c2.522-.2 4.566-1.516 4.566-2.941 0-2.046-.546-2.12-2.66-.365-1.462 1.224-3.517 1.68-4.566 1.04-1.048-.657-1.907-.328-1.907.732s2.055 1.754 4.567 1.534zm.913-16.935c1.005-.621 1.768-2.521 1.699-4.22-.106-2.522-.42-2.412-1.699.566-2.1 4.896-2.1 4.95 0 3.654zm2.126 158.029c1.576 0 2.318-3.198 1.485-6.395-.261-1.004-.41-3.27-.33-5.024.08-1.754-.62-3.197-1.555-3.197-.935 0-1.57 3.289-1.414 7.308.157 4.02.974 7.308 1.814 7.308zm3.498-156.513c.078 3.197.559 4.768 1.065 3.508.507-1.26 2.83-2.284 5.163-2.284 3.85 0 4.051-.402 2.132-4.476-1.348-2.85-2.746-3.836-3.865-2.722-1.12 1.114-2.65.256-4.236-2.375-1.636-2.722-2.128-2.978-1.443-.786.572 1.846 1.103 5.956 1.184 9.135zm-.762 34.565c.508-1.26.508-3.306 0-4.567-.506-1.26-.92-.22-.92 2.284 0 2.52.414 3.544.92 2.283zm4.515-21.192c1.405-2.411 1.388-3.928-.056-5.39-1.469-1.46-2-.547-1.96 3.38.05 4.732.298 4.97 2.016 2.01zm.669 11.601c1.507 0 2.74 1.096 2.74 2.43 0 4.165 8.633 23.896 10.77 24.609 1.115.365 2.01 1.826 2.01 3.251 0 1.425.822 2.595 1.826 2.595 1.005 0 1.827-1.224 1.827-2.74 0-1.499-.822-2.741-1.827-2.741-1.004 0-1.826-1.535-1.826-3.435 0-1.881-1.224-4.44-2.74-5.7-1.498-1.242-2.74-4.22-2.74-6.613 0-2.393-.822-4.348-1.826-4.348-1.005 0-1.827-1.59-1.827-3.544 0-1.955-.822-4.056-1.826-4.677-2.422-1.498-2.346-8.222.09-8.222 1.06 0 3.142 3.088 4.622 6.851 1.48 3.764 3.489 8.276 4.475 10.03.968 1.736 1.772 5.225 1.772 7.765 0 2.52.62 4.585 1.37 4.604 2.009.018 5.936 9.189 5.936 13.848 0 4.695 6.374 13.245 8.365 11.253.767-.749.347-3.325-.931-5.718-1.279-2.393-1.79-6.065-1.133-8.148.859-2.704.128-4.458-2.539-6.138-2.064-1.28-3.762-3.8-3.762-5.572 0-1.79-.804-4.677-1.772-6.413-.986-1.754-2.667-6.668-3.726-10.943-1.187-4.714-2.996-7.765-4.621-7.765-1.461 0-2.667-1.06-2.667-2.375 0-3.58-4.329-12.204-6.144-12.222-.87-.018-1.193 2.01-.718 4.513.559 2.923-.329 5.59-2.528 7.581-4.084 3.69-4.433 7.984-.65 7.984zm5.583-34.711c.439 0 .804-1.28.804-2.85 0-1.572-.822-2.32-1.845-1.7-1.693 1.042-.884 4.55 1.041 4.55zm3.635-19.402c1.626.62 2.375.328 1.735-.713-.62-.986-1.9-1.809-2.849-1.809-2.612 0-2.046 1.316 1.114 2.522zm.018 24.882c.439 0 .804-.822.804-1.827 0-1.004-.858-1.827-1.936-1.827-1.06 0-1.425.823-.804 1.827.621 1.005 1.498 1.827 1.936 1.827zm-1.589 88.04c.512-1.316.457-2.905-.146-3.508-.62-.603-1.04.475-.968 2.393.092 2.138.53 2.576 1.114 1.115zm16.786 9.372c2.868-.75 3.47-1.535 1.936-2.485-1.242-.767-3.288-.438-4.53.713-2.995 2.74-2.484 3.106 2.594 1.772zm-.384 10.834c.494-1.261.494-3.307 0-4.568-.511-1.26-.931-.219-.931 2.284 0 2.521.42 3.544.931 2.284zm4.256-116.467c1.005.621 1.827.31 1.827-.694 0-1.005-.822-2.339-1.827-2.96-1.004-.62-1.826-.31-1.826.695 0 1.004.822 2.338 1.826 2.96zm1.881 126.971c2.32 6.486 3.197 7.838 2.485 3.837-1.151-6.358-6.028-19.018-6.064-15.712-.019 1.005 1.607 6.358 3.58 11.875zm.969-12.788c.438 0 .803-.822.803-1.827s-.858-1.827-1.936-1.827c-1.06 0-1.425.822-.804 1.827s1.498 1.827 1.937 1.827zm5.15-204.616c3.434 0 4.33-.968 4.33-4.676 0-3.344-.75-4.385-2.65-3.654-1.479.566-3.415 1.023-4.346 1.023-.914 0-1.68 1.644-1.68 3.654 0 2.63 1.223 3.653 4.346 3.653zm-.328 188.137c5.479 5.883 6.447 1.7 1.46-6.358-2.173-3.507-4.292-6.394-4.712-6.394-2.447 0-.128 9.116 3.252 12.752zm5.46 93.612c1.572-1.59 1.572-3.143.019-6.285-1.99-3.983-2.046-3.946-1.023.859.713 3.416.31 5.024-1.278 5.024-1.279 0-1.754.566-1.078 1.242.694.694 2.192.31 3.36-.84zm.896 79.982c1.918 0 2.539 1.151 1.918 3.563-.53 1.973.182 5.06 1.552 6.85 2.174 2.869 2.484 1.627 2.539-9.956.055-13.94-1.37-16.241-5.425-8.678-1.333 2.521-3.178 4.567-4.073 4.567-.877 0-1.114.823-.493 1.827.621 1.005 2.41 1.827 3.982 1.827zm-1.133-266.73c1.06 0 1.425-.823.804-1.827-1.443-2.339-2.74-2.339-2.74 0 0 1.004.877 1.826 1.936 1.826zm2.941 134.699c.603 4.238 1.699 7.344 2.43 6.887.73-.457 1.059-2.686.693-4.97-1.589-10.303-4-19.95-5.278-21.137-.786-.712-.859 1.59-.165 5.097.676 3.526 1.736 9.866 2.32 14.123zm.603-138.353a1.832 1.832 0 0 0 1.826-1.827 1.832 1.832 0 0 0-1.826-1.827 1.832 1.832 0 0 0-1.827 1.827c0 1.004.822 1.827 1.827 1.827zm.036 178.125c.822 3.215 1.005-.201.439-8.222-.53-7.526-1.279-14.049-1.644-14.469-1.206-1.406-.238 17.155 1.205 22.69zm3.617-91.109c0 2.247 1.04 5.152 2.32 6.486 1.278 1.333 3.342 4.476 4.584 6.978l2.283 4.568-.822-5.481c-1.717-11.29-3.47-16.534-6.594-19.53-3.342-3.215-6.867-2.192-3.616 1.041 1.023 1.024 1.845 3.69 1.845 5.938zm1.936 108.3c.822-1.315 1.023-3.142.456-4.056-.566-.913-1.68-.566-2.502.75-.804 1.315-1.004 3.123-.456 4.037.566.913 1.698.584 2.502-.731zm-.603-30.473c.402-3.27.402-8.203-.018-10.962-.42-2.74-.749-.054-.749 5.974.018 6.03.365 8.276.767 4.988zm1.516 123.81c.438 0 .804-.822.804-1.826 0-1.005-.859-1.827-1.936-1.827-1.06 0-1.425.822-.804 1.827.621 1.004 1.498 1.827 1.936 1.827zm5.279-97.137c1.607 4.348 5.37 10.523 8.365 13.702 2.996 3.179 5.9 7.235 6.466 8.988.566 1.754 2.283 3.198 3.817 3.198 1.535 0 3.233 1.644 3.745 3.653.53 2.01 1.68 3.654 2.575 3.654.895 0 1.607 1.243 1.607 2.74a2.748 2.748 0 0 0 2.74 2.741c4.128 0 3.27-2.101-3.708-9.043-3.488-3.471-6.338-7.4-6.338-8.733 0-1.334-1.223-2.905-2.74-3.49-1.497-.566-2.74-2.155-2.74-3.525s-1.643-3.362-3.652-4.44c-2.01-1.078-3.653-3.526-3.653-5.444 0-1.937-1.06-4.165-2.356-4.97-1.297-.803-3.489-4.987-4.877-9.28-1.534-4.787-3.05-6.979-3.872-5.645-.731 1.187-.658 3.49.182 5.079.84 1.607 2.831 6.467 4.439 10.815zm6.301 33.013c5.17 5.352 6.868 6.375 6.137 3.635-.53-2.064-2.1-4.184-3.47-4.713-1.352-.53-2.484-2.01-2.484-3.289 0-1.279-1.644-2.758-3.653-3.288-2.01-.53-3.653-.695-3.653-.366 0 .33 3.214 3.928 7.123 8.02zm-4.036-88.99c.511-1.315.456-2.905-.147-3.508-.62-.603-1.04.475-.968 2.394.092 2.137.53 2.576 1.115 1.114zm9.315-47.591c.438-1.316-.073-3.27-1.133-4.33-1.351-1.352-1.589-.64-.803 2.393.657 2.467 1.48 3.307 1.936 1.937zm5.972-.256c1.06 0 1.425-.822.804-1.827-1.443-2.338-2.74-2.338-2.74 0 0 1.005.877 1.827 1.936 1.827zm3.818 155.288c.931 0 .804-1.626-.274-3.653-2.502-4.677-3.58-4.677-2.356 0 .53 2.01 1.717 3.653 2.63 3.653zm15.178-28.226c2.466 2.467 5.242 4.476 6.174 4.476.931 0 2.173 1.444 2.776 3.198 2.064 6.138 8.256 15.492 12.018 18.123 2.064 1.443 3.763 3.854 3.763 5.334 0 1.48 1.242 3.16 2.74 3.745 1.516.585 2.74 2.54 2.74 4.349 0 1.826.62 3.58 1.37 3.927.767.33 3.031 3.819 5.04 7.765 2.01 3.928 4.676 7.49 5.937 7.91 3.013 1.005 2.904-2.302-.183-5.389-1.352-1.352-3.872-5.408-5.57-9.025-1.718-3.6-4.567-8.112-6.32-9.993-1.772-1.9-3.252-3.855-3.306-4.367-.347-3.8-9.096-17.3-15.873-24.48-4.511-4.769-8.657-9.848-9.187-11.254-.548-1.425-2.228-2.083-3.8-1.498-3.707 1.425-3.597 1.9 1.681 7.18zm6.174 29.962c4.11.164 1.297-4.11-5.041-7.655l-6.028-3.361 4.31 5.444c2.375 3.014 5.407 5.499 6.759 5.572zm1.662 15.785c1.351-1.37-4.713-10.213-7.014-10.213-1.041 0-.11 2.521 2.064 5.59 2.192 3.07 4.42 5.152 4.95 4.623zm-2.484 17.648c1.351 1.754 2.977 3.197 3.635 3.197 1.917 0-.895-9.774-3.653-12.716-2.174-2.32-2.503-2.082-2.466 1.827.036 2.467 1.15 5.938 2.484 7.692zm7.671-35.644c1.333-1.351-1.845-10.395-3.927-11.199-1.918-.73-1.808.475.512 5.335 1.643 3.471 3.196 6.102 3.415 5.864zm1.005-93.702c.913 1.004 1.57-1.9 1.57-6.851 0-4.714-.821-8.587-1.826-8.587-1.005 0-1.918-1.845-2.046-4.11-.164-3.234-.475-2.96-1.46 1.37-1.243 5.407.693 14.798 3.762 18.178zm-3.617 104.134c1.17 2.558 2.813 4.659 3.653 4.659 2.831 0 1.571-4.878-2.119-8.221-4.182-3.782-4.511-2.996-1.534 3.562zm.84 17.447c.384 0 .694-1.644.694-3.654s-.748-3.653-1.643-3.653c-.914 0-1.224 1.644-.713 3.653.53 2.01 1.279 3.654 1.662 3.654zm1.736 20.096c.511 0 .036-1.644-1.042-3.653-1.077-2.01-2.356-3.654-2.867-3.654-.493 0-.037 1.644 1.041 3.654 1.078 2.01 2.374 3.653 2.868 3.653zm7.415-2.301c2.393 2.557 4.329 3.726 4.329 2.575 0-1.15-1.425-3.544-3.196-5.316-1.754-1.754-4.201-5.261-5.425-7.764l-2.228-4.55 1.095 5.19c.603 2.85 3.05 7.289 5.425 9.865zm-1.607-18.251c1.351.456 2.283-.804 2.283-3.051 0-2.23-1.169-3.8-2.868-3.8-3.36 0-2.867 5.7.585 6.85zm2.246-15.182c1.023 2.704 3.142 4.622 5.023 4.53 1.918-.072 2.302-.51.95-1.059-1.242-.512-2.283-1.991-2.283-3.288 0-1.298-1.224-3.38-2.74-4.64-3.196-2.668-3.36-1.9-.95 4.457zm5.517 14.725c1.004.621 2.611.64 3.58.055 2.429-1.498.237-6.45-2.85-6.45-2.922 0-3.452 4.714-.73 6.395zm0 13.702c1.004 0 1.826-1.224 1.826-2.74 0-1.499-.822-2.741-1.826-2.741-1.005 0-1.827 1.242-1.827 2.74 0 1.517.822 2.74 1.827 2.74zm5.223-126.058c.877 0 1.188-2.046.713-4.567-1.133-5.865-2.283-5.865-2.283 0 0 2.52.712 4.567 1.57 4.567zm.932 74.612c2.32 4.165 2.393 4.11 2.63-2.284.164-4.659-.53-6.559-2.447-6.559-3.27 0-3.343 3.16-.183 8.843zm2.648 46.897c1.461-1.444-1.844-4.586-3.634-3.471-1.224.749-1.042 1.699.53 2.667 1.333.822 2.739 1.187 3.104.804zm-3.324 11.856c1.443 2.211 1.79 1.955 1.808-1.37.019-2.265-.803-4.11-1.808-4.11-2.283 0-2.283 1.936 0 5.48zm1.26-122.056c.512-1.316.457-2.905-.146-3.508-.62-.603-1.04.475-.968 2.393.091 2.138.53 2.576 1.114 1.115zm5.279 84.586c3.251 3.8 4.42 4.367 4.42 2.138 0-1.663-.913-3.033-2.01-3.033-1.113 0-1.625-1.023-1.15-2.284.493-1.278-.986-3.708-3.27-5.426-3.944-2.977-4.109-2.977-3.287.147.475 1.808 2.85 5.608 5.297 8.458zm-2.831-207.356c2.119-3.343 2.246-5.462.347-5.462-.804 0-1.59 1.845-1.754 4.092-.237 3.216.055 3.508 1.407 1.37zm.968 73.096c.438 0 .804-1.28.804-2.85 0-1.572-.822-2.32-1.845-1.7-1.699 1.042-.877 4.55 1.04 4.55zm.11 12.788c.383 0 .694-2.1.694-4.677 0-2.576-.731-4.22-1.644-3.654-1.516.95-.676 8.331.95 8.331zm.09-67.14c.494-1.26.494-3.306 0-4.567-.51-1.26-.93-.219-.93 2.284 0 2.521.42 3.544.93 2.284zm1.736 34.255c.384 0 .694-1.644.694-3.653 0-2.01-.749-3.654-1.644-3.654-.913 0-1.224 1.644-.712 3.654.53 2.01 1.278 3.653 1.662 3.653zm-1.735 9.592c.493-1.26.493-3.307 0-4.567-.512-1.261-.932-.22-.932 2.283 0 2.521.42 3.544.932 2.284zm.055 35.588c.456-1.772.42-4.238-.073-5.48-.512-1.243-.877.219-.84 3.233.036 3.015.438 4.02.913 2.247zm1.114 26.82c.822-1.462 2.374-2.101 3.47-1.425 1.352.822 1.57-.475.694-4.075-.694-2.904-1.224-7.234-1.187-9.59.055-2.358-.365-5.043-.932-5.975-2.283-3.69-3.525.475-3.525 11.784 0 7.07.603 10.852 1.48 9.28zm5.132 7.088c3.069-3.088.146-6.76-3.196-3.983-1.845 1.535-2.064 2.795-.749 4.11 1.315 1.316 2.52 1.28 3.945-.127zm-2.959 111.57c1.973.75 2.74-.182 2.74-3.252 0-2.375-1.224-4.786-2.74-5.37-1.954-.75-2.74.182-2.74 3.27 0 2.356 1.243 4.786 2.74 5.352zm1.845-234.504c.274 0 .84-2.831 1.242-6.303.53-4.622.165-5.827-1.37-4.549-1.735 1.425-1.607 10.852.128 10.852zm-.931 136.106c1.004.621 1.826 5.189 1.826 10.158 0 4.969.822 9.025 1.827 9.025 1.004 0 1.826 3.233 1.826 7.198 0 3.964.822 7.71 1.827 8.33 1.132.695 1.826-2.374 1.826-8.001 0-5.024-.694-9.573-1.57-10.103-.86-.53-2.01-5.992-2.576-12.13-1.078-11.967-1.808-13.74-4.859-11.858-2.465 1.517-2.538 5.901-.127 7.381zm3.086-128.45c.512-1.316.457-2.906-.146-3.509-.62-.602-1.04.475-.968 2.394.092 2.137.53 2.576 1.114 1.114zm1.498 60.598c1.57.603 1.991-.31 1.352-2.813-.566-2.101.128-4.385 1.57-5.317 1.827-1.15 1.9-1.607.256-1.626-2.794-.036-3.087-11.29-.347-14.012 1.06-1.06 1.662-6.76 1.334-12.697-.494-9.263-.786-10.012-2.028-5.298-.804 3.014-2.064 6.65-2.813 8.075-2.447 4.64-1.881 32.72.676 33.688zm.091 10.304c.439 0 .804-1.279.804-2.85 0-1.571-.822-2.32-1.845-1.699-1.698 1.041-.876 4.549 1.041 4.549zm.201-131.082c.494-1.26.494-3.306 0-4.567-.511-1.26-.931-.22-.931 2.284 0 2.52.42 3.544.931 2.283zm.402 159.253c.11 3.928.767 6.577 1.461 5.883 1.644-1.626.694-19.548-1.223-22.965-.914-1.626-1.26-.255-.95 3.654.292 3.453.603 9.482.712 13.428zm1.425-150.118c.493-1.26.493-3.307 0-4.567-.512-1.261-.932-.22-.932 2.283 0 2.521.42 3.544.932 2.284zm.603 7.764c2.338-1.443 2.338-2.74 0-2.74-1.005 0-1.827.877-1.827 1.936 0 1.06.822 1.425 1.827.804zm-.22 214.664c.859 0 2.12 3.288 2.758 7.308.64 4.019 1.973 7.307 2.96 7.307 1.004 0 1.808 2.065 1.808 4.568 0 2.52.822 4.567 1.826 4.567 2.375 0 2.375-6.76 0-8.221-1.004-.621-1.845-3.746-1.881-6.96-.037-3.198-1.607-7.674-3.489-9.94-4-4.786-5.589-5.188-5.589-1.37 0 1.517.73 2.74 1.607 2.74zm.22 53.894c1.04.64 1.826-.859 1.826-3.435 0-2.52-.822-5.078-1.826-5.7-1.023-.639-1.827.86-1.827 3.435 0 2.521.822 5.079 1.827 5.7zm2.118-245.721c.859 0 1.535-1.59 1.535-3.544 0-1.955.822-4.056 1.826-4.677 1.005-.621 1.827-4.823 1.827-9.354 0-9.244-2.649-9.317-5.242-.146-2.046 7.216-2.01 17.72.054 17.72zm4.603-49.948c2.448-2.448 4.932-57.877 2.776-62.116-.42-.84-1.79.402-3.013 2.74-1.26 2.412-1.553 5.153-.694 6.285 2.794 3.69 2.082 38.238-.914 43.956-1.936 3.709-2.173 5.865-.803 7.509 1.06 1.297 2.246 2.01 2.648 1.626zm-.073 13.263c.365.42.658-1.443.658-4.11 0-3.16-.987-4.878-2.795-4.878-2.32 0-2.447.712-.676 4.11 1.188 2.266 2.448 4.458 2.813 4.878zm-3.543 47.153c.456-1.772.42-4.238-.073-5.48-.512-1.243-.877.219-.84 3.233.036 3.014.438 4.02.913 2.247zm-.567 22.416c1.516 0 2.21-11.016.822-13.208-.876-1.389-1.48.785-1.497 5.444-.019 4.275.292 7.764.675 7.764zm3.416 42.038c.42 3.508.785.22.822-7.326.018-7.527-.329-11.637-.785-9.135-.439 2.522-1.571 5.353-2.484 6.303-.987 1.023-.987 2.12.018 2.74.913.567 2.009 3.91 2.429 7.418zm-.804 17.721c2.74.201 3.142-.767 2.393-5.554-.566-3.453-1.224-4.512-1.626-2.594-.383 1.754-1.46 3.197-2.392 3.197-3.215 0-1.68 4.714 1.625 4.951zm-1.497 10.724c0 .42 1.643.767 3.653.767 4.328 0 4.584-1.15 1.04-4.695-3.506-3.507-7.177-3.343-5.79.274.603 1.59 1.097 3.234 1.097 3.654zm-.037 53.748c1.48 2.339 2.082 2.23 4.292-.785 2.521-3.453 2.612-3.453 4.64.329 1.132 2.137 2.064 8.385 2.064 13.902 0 6.486.968 11.017 2.74 12.789 1.716 1.717 2.74 6.193 2.74 12.003 0 5.097.748 9.262 1.661 9.262.895 0 2.503 2.467 3.544 5.481 1.169 3.362 3.196 5.48 5.205 5.48 2.704 0 3.325 1.609 3.416 9.044.073 4.97-.475 8.66-1.242 8.185-.749-.457-1.881 0-2.52 1.005-.622 1.023.054 1.863 1.515 1.863 1.461 0 3.124 1.242 3.69 2.74.62 1.608.036 2.74-1.425 2.74-3.817 0-4.712 4.605-1.333 6.706 1.662 1.04 4.603 1.333 6.557.639 2.41-.84 2.85-1.663 1.37-2.576-3.38-2.083-2.539-4.768 1.48-4.768 2.008 0 3.744-1.023 3.871-2.284.676-7.362 3.252-12.332 6.375-12.332 1.406 0 2.539-.968 2.539-2.137 0-3.435 5.753-8.824 9.425-8.824 1.844 0 3.36-.95 3.36-2.138 0-1.169.494-1.626 1.115-1.023.602.603 4.2-1.936 7.981-5.627 3.8-3.708 10.503-10.03 14.886-14.067 8.53-7.801 16.202-16.936 16.202-19.237 0-3.581-7.014.986-10.813 7.051-5.316 8.46-15.106 16.644-16.147 13.52-.876-2.668-5.918-3.015-5.918-.402 0 1.005-1.187 1.827-2.63 1.827-2.922 0-5.607 3.325-4 4.932.566.585 3.087-.292 5.608-1.936 5.625-3.69 6.502-3.727 6.502-.256 0 1.516-1.133 2.74-2.502 2.74-1.389 0-3.562 1.243-4.822 2.76-1.26 1.534-3.215 2.612-4.33 2.429-3.177-.548-13.88 6.412-13.899 9.025 0 1.297-1.242 2.813-2.758 3.398-1.498.585-2.74 2.485-2.74 4.22 0 1.754-1.68 4.714-3.762 6.595-2.192 1.992-3.398 4.805-2.886 6.778.64 2.412.018 3.216-2.174 2.795-3.872-.73-5.297-12.203-1.808-14.651 1.9-1.334 1.918-1.9.128-2.631-2.685-1.096-3.105-13.41-.457-13.41 1.005 0 1.827 2.887 1.827 6.394 0 4.093.876 6.395 2.429 6.395 1.753 0 2.466-3.398 2.612-12.296.11-6.942 1.041-12.569 2.137-12.934 1.078-.366 1.954-3.873 1.954-7.801 0-5.152.767-7.162 2.74-7.162 1.534 0 2.74 1.626 2.74 3.654 0 2.01.822 3.654 1.826 3.654 3.507 0 1.809 3.087-2.867 5.207-3.58 1.644-4.603 3.343-4.31 7.143.218 2.759-.238 6.486-1.005 8.276-1.937 4.567.675 6.559 3.506 2.667 1.297-1.754 3.288-3.197 4.439-3.197 1.534 0 1.498-.95-.128-3.562-1.863-2.978-1.626-4.111 1.352-6.851 1.972-1.809 3.58-4.513 3.58-6.03 0-1.826 1.917-2.776 5.753-2.85 4.292-.09 7.635-2.082 13.242-7.91 4.128-4.293 7.489-8.111 7.489-8.477 0-.347 2.886-3.781 6.393-7.6 3.507-3.836 6.393-7.654 6.393-8.531 0-.86 2.063-3.18 4.566-5.152 2.52-1.973 4.566-4.677 4.566-5.993 0-1.333 1.242-2.886 2.74-3.47 1.516-.585 2.74-.257 2.74.712 0 .968 1.059 1.772 2.337 1.772 4.165 0 13.407-13.136 11.471-16.278-.53-.859.657-2.01 2.648-2.521 2.1-.548 3.635-2.503 3.635-4.586 0-1.991 1.242-4.092 2.74-4.677 1.516-.584 2.74-2.119 2.74-3.434 0-1.316 3.032-4.001 6.74-5.993 3.707-1.991 8.219-5.206 10.045-7.161 3.598-3.855 4.402-8.331 1.48-8.331-1.005 0-1.827 1.206-1.827 2.686 0 1.68-1.06 2.265-2.83 1.589-2.43-.932-2.32-1.571.84-4.512 2.008-1.882 4.93-3.417 6.483-3.417s2.813-.822 2.813-1.827a1.832 1.832 0 0 0-1.826-1.827c-3.27 0-1.918-3.197 1.753-4.165 1.991-.512 4.146-3.215 4.877-6.12 1.425-5.737 5.096-10.268 6.85-8.495.62.62 1.132.127 1.132-1.078 0-1.206 2.265-4.476 5.023-7.253 5.351-5.408 7.105-9.427 4.11-9.427-1.005 0-1.827 1.187-1.827 2.63 0 3.91-3.507 5.354-4.786 1.992-1.278-3.307 6.046-10.67 8.877-8.915 1.078.657 1.297-.439.548-2.777-.694-2.193-.438-3.892.603-3.892 1.004 0 2.393-1.808 3.105-4.019.694-2.21 2.393-5.152 3.763-6.522 3.123-3.124 3.232-5.883.219-5.974-1.242-.037.182-1.389 3.196-2.996 6.356-3.398 8.165-5.682 8.201-10.304.018-1.827 1.133-4.421 2.466-5.773 1.498-1.48 2.594-7.363 2.795-14.944.273-9.92 1.095-13.118 3.945-15.53 3.598-3.032 4.858-7.015 2.21-7.015-.767 0-2.21-1.845-3.197-4.11-.986-2.266-3.653-4.367-5.917-4.695-2.247-.311-4.11-1.553-4.128-2.74-.019-1.188-1.754.51-3.836 3.781-2.1 3.27-4.859 5.937-6.137 5.937-1.279 0-5.516 3.782-9.407 8.423-3.89 4.622-8.511 9.737-10.283 11.363-3.562 3.289-4.146 5.791-1.351 5.791 2.465 0 12.767-9.938 12.767-12.313 0-2.814 13.205-15.09 16.22-15.09 2.118 0 2.045.62-.403 3.343-1.662 1.845-3.032 4.311-3.032 5.48 0 1.17-1.424 2.138-3.196 2.156-3.251 0-9.59 9.135-9.59 13.83 0 1.425-1.077 2.594-2.41 2.594-5.023 0-17.571 18.818-14.01 21.01 2.923 1.809 2.083 4.184-1.388 3.91-1.753-.147-3.78-1.7-4.493-3.453-1.717-4.166-5.096-4.13-5.096.055 0 3.927 6.722 10.139 8.274 7.636 1.388-2.265 4.512-2.265 4.512 0 0 1.663-7.306 13.592-10.685 17.429-.877 1.005-3.361 3.033-5.498 4.512-2.155 1.48-3.909 4.148-3.909 5.938s-.767 3.252-1.717 3.252c-.95 0-2.794 3.836-4.128 8.532-2.502 8.842-6.94 12.898-6.94 6.339 0-2.028.822-4.202 1.826-4.823 1.005-.621 1.827-2.65 1.827-4.513 0-1.881 1.04-3.89 2.283-4.476 1.772-.822 1.79-1.297.073-2.1-1.461-.695-.402-2.814 3.196-6.34 2.977-2.905 5.407-6.138 5.407-7.18 0-1.023.822-1.881 1.826-1.881 2.375 0 9.133-6.76 9.133-9.135 0-3.179-4-1.973-8 2.393-8.475 9.244-16.822 20.809-20.055 27.751-1.863 4.02-4.585 9.372-6.046 11.875-1.461 2.521-3.105 6.01-3.671 7.765-.548 1.753-1.717 3.197-2.576 3.197-.877 0-3.214 3.197-5.205 7.125-2.01 3.91-4.694 8.257-5.973 9.664-3.397 3.672-6.868 9.208-8.091 12.898-.603 1.754-1.717 3.197-2.521 3.197-.785 0-2.484 2.668-3.763 5.938-1.296 3.27-2.648 6.485-3.032 7.161-.365.676.95.804 2.923.293 1.99-.53 4.657-3.545 5.936-6.705 1.278-3.179 3.397-6.43 4.712-7.216 1.297-.804 4.33-5.774 6.74-11.035 2.411-5.262 5.699-10.67 7.324-12.021 1.626-1.334 2.96-3.362 2.996-4.494.073-3.746 6.703-10.852 8.858-9.5 1.498.913 1.042 2.795-1.57 6.485-2.028 2.832-3.69 5.7-3.69 6.34 0 .639-2.009 3.343-4.457 5.992-2.465 2.649-4.054 5.48-3.543 6.303.493.822.091 1.498-.895 1.498-1.005 0-2.393 1.845-3.105 4.11-.712 2.266-2.776 5.39-4.566 6.961-1.79 1.553-4.621 6.23-6.283 10.359-1.644 4.128-4.019 7.91-5.26 8.385-1.243.475-4.238 5.481-6.668 11.108-2.429 5.627-5.46 10.23-6.74 10.23-3.561 0-2.757-2.977 2.247-8.385 4.42-4.768 6.722-16.899 2.74-14.45-1.005.62-1.827 2.32-1.827 3.763s-.803 2.63-1.79 2.63c-.986 0-2.3 2.065-2.94 4.568-.621 2.52-1.881 4.567-2.776 4.567-.895 0-1.626 1.242-1.626 2.74 0 1.517-.822 2.74-1.827 2.74-3.013 0-2.064-4.53 1.827-8.714 2.01-2.155 3.653-5.59 3.653-7.655 0-2.046.73-3.726 1.626-3.726.895 0 2.1-1.864 2.685-4.148.566-2.283 2.703-5.937 4.748-8.148 2.064-2.192 3.727-6.083 3.727-8.641s.803-4.64 1.79-4.64c.968 0 3.141-2.668 4.803-5.938 1.68-3.27 4.165-6.595 5.535-7.399 1.37-.804 2.484-2.32 2.484-3.361 0-1.06 1.735-4.349 3.853-7.326 2.12-2.978 3.343-5.92 2.722-6.54-1.37-1.371-6.43 4.987-6.52 8.184-.019 1.26-1.28 2.283-2.795 2.283-1.498 0-2.74 1.499-2.74 3.344 0 1.845-1.845 4.348-4.11 5.572-3.744 2.028-12.365 18.324-12.329 23.311 0 1.151-1.059 2.503-2.374 3.015-1.315.493-3.507 4.293-4.858 8.404-1.37 4.129-3.179 7.508-4.019 7.508-.84 0-1.534 1.553-1.534 3.453s-1.224 3.946-2.74 4.513c-1.662.64-2.74 0-2.74-1.626 0-1.48.768-2.686 1.68-2.686.932 0 3.033-4.056 4.677-9.025 1.644-4.95 3.854-9.299 4.895-9.646 1.04-.347 1.516-2.649 1.04-5.134l-.858-4.512-1.37 4.11c-.748 2.266-2.082 4.111-2.958 4.111-.895 0-1.626 1.991-1.626 4.44 0 2.448-1.078 5.517-2.393 6.85-1.315 1.334-3.561 5.08-5.004 8.35-2.484 5.626-5.389 7.91-5.389 4.256 0-.913-.548-3.124-1.223-4.878-.932-2.411-.53-2.941 1.643-2.1 1.864.712 3.197-.092 3.763-2.284.64-2.467.128-3.106-1.9-2.339-1.844.731-2.484.22-1.88-1.498.51-1.425 2.264-2.466 3.908-2.32 3.525.292 4-2.229.712-3.764-1.826-.84-1.826-1.278 0-2.119 1.26-.584 2.283-3.398 2.283-6.248s.895-5.48 1.991-5.828c1.315-.438 1.498-3.142.585-7.929-1.297-6.668-1.516-6.887-2.722-2.685l-1.315 4.567-.31-4.567c-.274-4.038-.457-4.166-1.68-1.041-1.005 2.539-1.79 2.904-2.777 1.297-.767-1.224-.384-3.453.84-4.933 3.05-3.672 1.224-25.029-2.666-30.948-1.644-2.503-2.138-4.567-1.115-4.567 2.174 0 2.21-16.99.037-23.75-1.26-3.947-2.776-2.047-1.973 2.466.439 2.503-1.918 8.86-2.922 7.856-.493-.494-.877-11.181-.822-23.732.073-17.83-.493-23.293-2.575-25.029-2.284-1.882-2.704-.42-2.941 10.359-.146 6.906-.621 10.14-1.06 7.198-.438-2.942.201-16.497 1.425-30.144 3.197-35.717 3.763-51.574 1.955-53.84-.877-1.114-.969-5.7-.22-10.23.859-5.17 1.516-6.523 1.754-3.654.2 2.52.785 3.525 1.297 2.265 1.589-3.946-4.987-32.245-8.22-35.351-6.52-6.285-11.27-12.734-11.27-15.346 0-1.498-.821-2.722-1.826-2.722-1.004 0-1.826-1.206-1.826-2.686 0-5.371-20.877-10.706-21.06-5.39-.018.932 1.005 1.444 2.283 1.152 1.297-.293 2.338.31 2.338 1.37 0 1.041-.767 1.9-1.698 1.9-.932 0-2.046 1.845-2.485 4.11-.675 3.526-.821 3.398-1.04-.913-.348-6.833-3.91-6.413-3.91.457 0 3.16-.967 5.499-2.282 5.517-1.516.018-1.352.603.456 1.772 2.265 1.425 2.338 2.375.457 5.426-2.74 4.403-3.014 11.035-.457 11.035 1.005 0 1.881-2.266 1.955-5.024.164-5.993 3.105-13.83 3.598-9.592.182 1.517.164 8.696-.037 15.986-.274 10.011.238 13.245 2.082 13.282 1.863.018 1.918.365.22 1.443-1.644 1.041-1.809 4.056-.64 11.382.877 5.48.932 10.797.128 11.802-2.575 3.233-6.082 44.175-3.89 45.526 1.534.95-.603 19.585-2.831 24.81-.64 1.516-1.389 6.65-1.644 11.418-.402 7.509 0 8.678 3.032 8.678 3.963 0 4.986-6.467 1.224-7.837-1.827-.676-1.827-1.316 0-3.252 1.26-1.334 2.283-6.358 2.283-11.144 0-6.998.548-8.496 2.74-7.655 1.515.584 2.74 3.014 2.74 5.426 0 2.393.821 4.366 1.826 4.366 1.004 0 1.826-3.288 1.826-7.308 0-4.019.822-7.307 1.827-7.307 1.06 0 1.826 5.791 1.826 13.702 0 20.808 5.461 16.972 6.119-4.312.256-8.111.621-8.842 3.598-7.253 2.43 1.297 2.795 2.393 1.37 4.11-1.699 2.047-2.648 19.019-1.644 29.378.183 2.01.201 9.664.019 17.008-.475 19.366-3.982 14.744-3.982-5.243 0-12.825-.548-16.333-2.557-16.333-2.52 0-4.658 11.839-4.914 26.948-.054 3.27-.803 5.937-1.662 5.937-2.593 0-4.073-7.216-2.83-13.866.73-3.855.456-6.23-.731-6.23-1.06 0-1.772.621-1.626 1.37.164.75-.712 3.837-1.936 6.851-1.242 3.014-1.9 7.326-1.48 9.591.548 2.777-.091 4.11-1.936 4.11-2.1 0-2.484-1.479-1.662-6.503.585-3.562.566-7.746-.018-9.28-2.028-5.299-4.165 1.589-4.037 13.044.055 6.028.53 9.938 1.041 8.677 1.26-3.16 6.083-2.886 6.083.348 0 1.443-.64 3.032-1.443 3.526-2.21 1.37-2.74 40.795-.566 42.147 1.04.64 1.808 4.658 1.716 8.933-.2 10.048 1.973 22.837 4.11 24.152.913.567 1.662 3.051 1.662 5.5 0 2.447.822 4.457 1.827 4.457 2.776 0 2.064-23.586-.968-31.971-1.443-4.02-2.63-9.975-2.649-13.245-.018-3.27-.694-5.938-1.516-5.938-.803 0-1.68-7.399-1.936-16.442-.31-10.743.201-16.443 1.461-16.443 1.078 0 1.955-1.644 1.955-3.653 0-3.855 2.666-4.915 4.566-1.827.621 1.005.256 1.827-.804 1.827-1.223 0-1.936 6.778-1.936 18.78 0 16.68.42 19.073 3.653 21.412 3.945 2.832 4.932 7.308 1.626 7.308-1.315 0-1.534 1.717-.603 5.024.767 2.758 1.881 12.02 2.484 20.553.749 11.016 1.735 15.4 3.343 15.072 1.26-.256 2.283.365 2.283 1.37 0 1.005-.987 1.827-2.192 1.827-1.699 0-1.699.493 0 2.192 2.886 2.887 2.831 8.77-.091 8.806-1.644.018-1.699.402-.201 1.37 1.15.73 3.178 4.97 4.493 9.427 1.881 6.303 1.936 8.258.2 8.842-1.223.402-1.734 1.517-1.132 2.485.658 1.096 2.046.968 3.599-.329 1.954-1.608 3.25-1.388 5.625.987 2.594 2.612 2.685 3.343.512 4.731-1.827 1.151-1.918 1.626-.31 1.663 1.26 0 2.282 1.26 2.282 2.759 0 1.516-1.497 2.74-3.324 2.74-2.795 0-3.233 1.315-2.831 8.221.493 8.514-1.425 10.578-4.658 5.024-1.589-2.759-1.863-2.521-1.917 1.663-.037 3.708-.804 4.658-3.252 4.019-1.753-.475-3.324-2.65-3.488-4.86-.183-2.21-.895-6.284-1.59-9.043-1.643-6.45 2.21-6.833 4.622-.457 2.83 7.454 5.315 5.243 4.548-4.056-.42-5.188-1.882-9.5-3.653-10.797-2.466-1.808-2.576-2.777-.658-5.846 1.863-2.996 1.827-4.658-.2-8.86-1.425-2.905-2.302-9.318-2.01-14.744.274-5.28-.237-9.591-1.132-9.591-3.434 0-6.028 4.64-6.083 10.87l-.054 6.486-3.489-4.166c-2.63-3.179-4.603-3.891-8.165-3.014-4.456 1.133-6.959-1.809-2.74-3.215 2.23-.731.33-6.961-2.118-6.961-2.174 0-2.046 12.953.146 16.442zm12.932-211.283c1.06-1.078 2.41-9.464 3.014-18.635.584-9.19 1.88-16.716 2.849-16.716 1.717 0 .913 20.48-1.607 40.649-.713 5.754-.402 8.678.931 8.678 1.114 0 2.01 2.064 2.01 4.567 0 6.358-3.106 5.736-4.567-.914-.658-3.014-1.954-5.48-2.886-5.48-2.32 0-2.119-9.793.256-12.15zm2.612-63.048c.511-.511 1.077-4.348 1.242-8.531.365-9.573 3.342-10.103 3.342-.585 0 3.873.53 13.52 1.15 21.466.878 11.053.64 13.958-1.004 12.424-1.187-1.115-2.52-5.554-2.94-9.866-.439-4.33-1.224-9.226-1.754-10.907-.53-1.68-.548-3.47-.036-4zm1.844 91.639c2.978-2.466 3.343-1.882 1.644 2.594-.62 1.59-1.844 2.887-2.74 2.887-2.538 0-1.936-2.96 1.096-5.481zm.658 184.52c.877 0 2.064 4.73 2.667 10.504.584 5.773 1.625 12.35 2.283 14.615.676 2.266.42 4.111-.53 4.111-.968 0-2.703-3.179-3.872-7.07-2.466-8.258-2.813-22.16-.548-22.16zm5.096-103.076c4.274-1.644 4.968-.164 1.516 3.289-1.626 1.626-2.283 2.96-1.461 2.978.822 0 1.68 3.836 1.9 8.531.218 4.677 1.241 9.044 2.3 9.701 1.042.64 2.339 6.468 2.868 12.935.512 6.449 2.156 18.945 3.635 27.733 3.123 18.634 3.416 28.774.84 28.774-2.045 0-2.045 0-2.575-10.049-.201-4.019-.968-10.998-1.699-15.528-.73-4.513-1.625-10.688-1.972-13.702-1.443-12.04-5.626-30.145-6.96-30.145-.767 0-1.406-5.261-1.406-11.674 0-9.152.658-11.93 3.014-12.843zm.274-121.18c.383-9.573 1.205-13.245 2.977-13.245 3.452 0 3.909 3.928 2.868 24.152-.64 12.496-1.516 17.356-2.96 16.442-2.611-1.68-3.56-10.65-2.885-27.349zm2.21-58.918c1.005 0 1.936-1.845 2.064-4.11.274-4.148 1.772 4.695 4.347 25.576 1.005 8.167.804 11.419-.676 11.419-1.15 0-2.1-2.412-2.1-5.371 0-2.96-.786-5.865-1.735-6.45-.968-.602-1.297-2.283-.731-3.763s.256-2.686-.694-2.686c-.932 0-1.845-3.288-2.01-7.307-.145-4.02.53-7.308 1.535-7.308zm.895 34.054c3.562 1.37 3.562 6.138 0 6.138-1.498 0-2.74-1.607-2.74-3.599 0-2.448.877-3.252 2.74-2.54zm7.36-33.396c2.174 3.763 2.467 5.773 1.024 7.216-1.425 1.443-1.991.914-1.991-1.882 0-2.119-.457-5.37-1.023-7.216-.566-1.827.329-.987 1.99 1.882zM241.48 261.06c2.43 0 3.963 9.427 2.539 15.693-.877 3.873-.95 7.49-.183 8.02 2.247 1.535 2.594 20.133.365 20.133-2.246 0-2.228.091-3.013-25.12-.31-10.304-.183-18.726.292-18.726zm2.119 104.664c1.771-.64 3.799-2.064 4.548-3.142.913-1.334 1.351-1.26 1.37.22.018 1.205-.804 2.703-1.827 3.324-3.342 2.065.128 4.586 4.73 3.435 3.562-.895 4.238-.53 3.361 1.772-.602 1.59-1.954 2.704-2.995 2.485-1.023-.22-2.283.749-2.795 2.137-.566 1.553-.127 2.046 1.133 1.279 1.114-.713 3.415-.512 5.096.438 2.667 1.48 2.484 1.882-1.352 3.18-8.11 2.721-8.986 2.447-8.986-2.832 0-2.869-1.206-5.59-2.74-6.175-3.708-1.425-3.452-4.677.457-6.12zm.456-217.933c1.005 0 1.827 3.233 1.827 7.18 0 3.946 1.242 8.403 2.74 9.92 4.53 4.512 3.506 10.303-1.827 10.303-2.502 0-4.566-.822-4.566-1.826 0-1.005.822-1.827 1.826-1.827 1.005 0 1.827-2.047 1.827-4.568 0-2.503-.822-4.567-1.827-4.567-1.004 0-1.826-3.288-1.826-7.308 0-4.019.822-7.307 1.826-7.307zm1.827-42.02c.749-3.507 1.461-5.024 1.589-3.343.128 1.663 1.023 3.307 1.954 3.654.95.329 2.119 4.056 2.63 8.276.731 6.211.402 7.454-1.771 6.632-2.375-.914-6.612-6.742-5.991-8.24.146-.329.858-3.453 1.589-6.979zm2.593 22.07c1.918-.073 2.996.347 2.393.95-.603.62-2.173.676-3.488.146-1.462-.585-1.042-1.005 1.095-1.096zm-.548 87.546c1.133 0 1.626-1.608 1.078-3.654-.548-2.101-.055-3.654 1.17-3.654 2.392 0 3.086 38.895.73 41.252-.75.767-1.37-2.046-1.37-6.23 0-4.183-.822-7.618-1.827-7.618-1.004 0-1.826-4.513-1.826-10.048 0-6.175.785-10.048 2.045-10.048zm.695 103.477c1.79.676 2.74 3.507 2.74 8.056 0 3.855.821 7.51 1.826 8.13 2.1 1.297 2.356 9.427.657 21.704-1.132 8.313-1.223 8.422-3.981 4.494-2.046-2.923-2.229-4.238-.676-4.768 3.123-1.041 2.685-14.268-.566-17.52-3.854-3.855-3.854-21.576 0-20.096zm1.716-50.496c1.571 0 2.85.822 2.85 1.826 0 2.357-3.105 2.357-4.566 0-.621-1.004.164-1.826 1.716-1.826zm2.302-135.85c2.1-2.101 4.365 1.004 2.43 3.325-2.412 2.923-.549 8.294 2.885 8.294 1.406 0 2.539.822 2.539 1.827 0 1.004-1.279 1.827-2.85 1.827-2.137 0-2.538 1.06-1.589 4.11.694 2.266 1.991 4.385 2.868 4.714 2.484.968 1.845 11.253-.712 11.418-1.827.11-1.827.329 0 1.06 3.214 1.297 2.849 6.101-.457 6.101-1.9 0-2.813-2.082-2.959-6.85-.128-3.764-.53-8.496-.895-10.505-1.443-8.13-2.246-24.335-1.26-25.321zm.548 66.883c1.516.42 2.904 2.74 3.087 5.17.255 3.49.127 3.654-.676.768-.548-2.01-1.936-4.33-3.069-5.17-1.37-.987-1.15-1.243.658-.768zm0 58.918c2.374 1.462 2.374 8.222 0 8.222-1.005 0-1.827-2.101-1.827-4.677 0-2.65.804-4.184 1.827-3.545zm.365 16.99c1.717 1.7 1.717 2.686 0 4.385-1.699 1.7-2.192 1.225-2.192-2.192 0-3.416.493-3.891 2.192-2.192zm-.365 108.155c1.004 0 1.826 1.644 1.826 3.654s-.822 3.653-1.826 3.653c-1.005 0-1.827-1.644-1.827-3.653 0-2.01.822-3.654 1.827-3.654zm7.543-144.82c1.242 1.242 1.809 2.722 1.242 3.288-.566.566-1.589-.457-2.265-2.265-1.004-2.595-.785-2.814 1.023-1.023zm-.95 6.467c.603.603.658 2.192.147 3.508-.585 1.461-1.023 1.023-1.115-1.115-.073-1.918.347-2.996.968-2.393zm2.521 13.227c1.023-.621 1.845.128 1.845 1.699 0 3.215-1.096 3.69-2.649 1.15-.584-.931-.219-2.21.804-2.85zm.018 127.866c1.005-.621 1.827.566 1.827 2.63 0 2.065-.822 3.764-1.827 3.764-2.374 0-2.374-4.932 0-6.394zm1.827-89.52c1.004.622 1.826 1.956 1.826 2.96 0 1.005-.822 1.316-1.826.695-1.005-.621-1.827-1.955-1.827-2.96s.822-1.315 1.827-.694zm3.05 52.397c4.585.877 5.206 5.152.767 5.152-2.246 0-3.817-1.17-3.817-2.868 0-1.7 1.242-2.631 3.05-2.284zm-1.68 48.23c.767-.748 1.48-2.118 1.607-3.032.128-.932.329-2.503.457-3.508.274-2.283 5.698-2.43 5.698-.146 0 .914-1.022 2.083-2.283 2.595-1.534.62-1.37.968.512 1.06 4.347.218 9.077-6.596 9.114-13.118.018-3.892 1.57-7.381 4.566-10.213 2.503-2.375 4.53-5.042 4.53-5.937 0-.914.822-1.644 1.826-1.644 2.886 0 2.156 2.612-1.936 7.015-2.21 2.375-3.488 5.737-3.068 8.112.694 3.927.767 3.946 2.283.401.858-2.01 3.068-4.731 4.895-6.047 1.826-1.315 4.621-4.878 6.174-7.91 1.57-3.033 5.278-8.039 8.219-11.126 2.94-3.07 5.352-6.943 5.352-8.587 0-1.626 1.643-4.384 3.653-6.102 3.068-2.612 3.653-2.685 3.653-.402 0 1.498-.603 2.722-1.37 2.74-1.644.019-5.936 8.88-5.936 12.278 0 1.333-1.206 2.904-2.704 3.47-1.48.567-4.511 4.038-6.74 7.71-4.146 6.851-5.223 8.149-18.429 22.198-6.539 6.978-17.279 14.615-20.512 14.615-1.406 0-1.114-2.868.439-4.421zm2.447-18.871c2.046-5.445 5.315-5.244 5.315.31 0 2.43 1.041 4.769 2.284 5.225 1.333.475 1.607 1.498.675 2.43-.95.95-1.954.713-2.41-.548-.42-1.206-1.882-1.772-3.215-1.242-3.38 1.297-4.494-1.297-2.649-6.175zm2.576-77.846c1.516-.584 2.74-.255 2.74.713s-1.224 1.772-2.74 1.772c-3.507 0-3.507-1.133 0-2.485zm0 26.235c1.516 0 2.74.822 2.74 1.827s-1.224 1.827-2.74 1.827c-1.498 0-2.74-.822-2.74-1.827s1.242-1.827 2.74-1.827zm-.603 40.192c1.169 0 1.662-.456 1.096-1.023-.548-.566.968-3.16 3.379-5.773 2.41-2.594 4.84-4.275 5.406-3.708 1.242 1.224-3.178 8.678-5.15 8.678-.768 0-1.389 1.15-1.389 2.539 0 1.407-1.223 3.033-2.74 3.599-1.662.64-2.74 0-2.74-1.626 0-1.48.969-2.686 2.138-2.686zm7.909 2.485c1.516-.566 2.74-2.1 2.74-3.398 0-1.297 1.241-2.814 2.74-3.398 1.515-.585 2.739-.256 2.739.712 0 .969-.676 1.772-1.534 1.772-.84 0-2.466 2.065-3.617 4.568-1.132 2.521-2.904 4.567-3.945 4.567-2.868 0-2.21-3.635.877-4.823zm44.75-40.85c.876-1.498 2.593-5.225 3.798-8.258 2.703-6.741 10.813-13.647 10.813-9.19 0 1.554-.822 2.833-1.826 2.833-1.005 0-1.827 1.644-1.827 3.653 0 2.028-1.205 3.654-2.74 3.654-1.516 0-2.74 1.626-2.74 3.654 0 2.01-.821 3.654-1.826 3.654-1.004 0-1.826 1.242-1.826 2.74 0 1.517-.822 2.74-1.827 2.74-2.173 0-2.173-1.753 0-5.48zm1.826 15.529c1.863-3.015 3.452-6.54 3.525-7.838.073-1.297.986-3.361 2.027-4.567 1.041-1.224 3.069-3.855 4.512-5.864 2.32-3.252 2.612-3.289 2.666-.457.037 1.754-.767 3.197-1.771 3.197-1.005 0-1.827 2.064-1.827 4.567 0 2.521-.657 4.568-1.461 4.568-.822 0-2.94 3.288-4.712 7.307-1.772 4.02-3.982 7.308-4.914 7.308-2.393 0-1.936-1.918 1.955-8.221zm19.178-49.071c1.516-.585 2.74-2.32 2.74-3.855 0-1.535 1.242-2.795 2.74-2.795 3.561 0 3.561 3.453 0 4.823-1.498.584-2.74 2.52-2.74 4.311 0 1.79-1.224 3.746-2.74 4.312-1.827.712-2.74-.073-2.74-2.339 0-1.881 1.242-3.873 2.74-4.457zm-1.37 11.838c3.617.567 5.936-.438 5.936-2.558 0-3.069 6.904-8.933 8.146-6.905.548.858-1.48 4.202-4.493 7.417-3.014 3.234-5.48 6.595-5.48 7.509 0 .895-1.223 1.626-2.74 1.626-1.515 0-2.739-1.626-2.739-3.654 0-2.01.621-3.563 1.37-3.435zm18.722-37.671c1.004-.621 1.826-3.142 1.826-5.59s.822-4.458 1.827-4.458c1.004 0 1.826-.786 1.826-1.736s2.064-3.946 4.567-6.65c2.52-2.722 4.566-6.047 4.566-7.417 0-1.352.822-2.466 1.826-2.466 1.005 0 1.827-1.224 1.827-2.74a2.76 2.76 0 0 1 2.74-2.741c3.89 0 3.397 2.759-1.425 7.965-2.302 2.485-5.388 6.851-6.85 9.683-1.479 2.85-3.707 5.846-4.968 6.65-1.242.804-2.301 2.868-2.338 4.567-.054 3.252-4.054 9.5-6.082 9.5-1.845 0-1.351-3.325.658-4.567zm8.219 9.39c1.516-.584 2.74-.347 2.74.53 0 .859-1.224 2.046-2.74 2.613-1.498.584-2.74.347-2.74-.512 0-.877 1.242-2.046 2.74-2.63zm8.22-19.438c1.004 0 1.826-1.991 1.826-4.44 0-2.85 1.315-4.86 3.653-5.608 2.009-.64 3.653-2.339 3.653-3.782 0-1.425.822-2.612 1.826-2.612 3.032 0 2.1 2.722-3.653 10.669-3.013 4.165-5.48 8.349-5.48 9.299 0 .968-.821 2.247-1.826 2.868-1.004.621-1.826-.566-1.826-2.63 0-2.065.822-3.764 1.826-3.764zm4.51 8.495c4.238-1.626 5.133 2.065 1.024 4.275-2.923 1.553-3.708 1.425-3.708-.64 0-1.424 1.205-3.069 2.685-3.635zm3.215-51.428c2.01-4.019 4.201-7.71 4.84-8.22.64-.494 3.434-4.404 6.21-8.679 2.759-4.275 6.247-7.764 7.745-7.764 3.726 0 3.416 1.315-1.425 6.029-2.283 2.21-5.351 6.485-6.849 9.5-1.498 3.014-3.47 6.028-4.402 6.704-.931.658-2.575 3.892-3.653 7.162-1.077 3.27-2.995 6.285-4.256 6.705-3.141 1.023-2.538-2.795 1.79-11.437zm13.023-1.754c4.567-8.44 13.937-19.328 13.955-16.186 0 1.187-1.224 3.38-2.74 4.896-1.498 1.498-2.74 4.038-2.74 5.609 0 1.57-.639 2.868-1.424 2.868-2.283 0-8.037 10.779-6.795 12.77.64 1.041-.11 1.334-1.735.713-3.452-1.316-3.397-1.626 1.48-10.67zm6.649.84c1.004 0 1.826 1.28 1.826 2.85 0 1.572-.822 2.34-1.826 1.718-2.356-1.461-2.356-4.567 0-4.567zm5.48-32.464c2.009-2.155 3.652-4.695 3.652-5.627 0-.931 1.242-2.174 2.74-2.758 1.516-.585 2.74-.256 2.74.712 0 .969-.621 1.772-1.406 1.772-.768 0-2.96 2.887-4.859 6.395-1.881 3.526-4.128 6.394-4.968 6.394-2.594 0-1.735-2.759 2.1-6.888zM209.46 467.502c1.06 0 1.425-.822.804-1.827-1.443-2.338-2.74-2.338-2.74 0 0 1.005.877 1.827 1.936 1.827zm1.717-81.298c1.005.621 1.827 4.732 1.827 9.135s.822 8.513 1.826 9.134c1.005.622 1.827 3.088 1.827 5.481s.822 4.86 1.826 5.48c1.005.622 1.827 2.723 1.827 4.678s1.242 3.544 2.776 3.544c2.119 0 2.484-1.206 1.552-5.024-.675-2.759-1.936-5.298-2.776-5.627-.858-.347-1.552-4.659-1.552-9.591 0-4.951-.822-8.989-1.827-8.989-1.004 0-1.826-4.11-1.826-9.134 0-6.395-.73-9.135-2.43-9.135-1.333 0-2.977.548-3.653 1.224-1.844 1.845-1.46 7.545.603 8.824zm5.936-34.584c2.302.33 3.197-.785 3.197-3.946 0-2.411-.822-4.403-1.827-4.403-1.004 0-1.826-3.91-1.845-8.677-.018-4.769-.785-9.866-1.698-11.327-1.096-1.7-1.571 2.777-1.352 12.624.292 12.99.804 15.328 3.525 15.73zm-1.552 93.758c1.552 2.814 2.867 3.617 3.69 2.284.712-1.151.766-2.905.145-3.91-1.68-2.722.804-2.21 3.781.786 3.562 3.562 6.265 11.162 6.265 17.611 0 2.942.822 5.353 1.827 5.353 2.045 0 2.539-13.3.566-15.273-.712-.694-1.48-2.667-1.735-4.384-.256-1.718-1.315-3.399-2.375-3.746-1.06-.365-1.936-3.215-1.936-6.34 0-4.439.493-5.206 2.192-3.507 5.333 5.335 6.648 1.553 1.717-4.878l-3.343-4.33-4.018 6.523c-2.575 4.165-4.986 6.156-6.685 5.499-3.288-1.26-3.324 2.466-.091 8.312zm2.959-207.173c1.023-.621 1.388-1.918.803-2.85-1.57-2.54-2.666-2.064-2.666 1.151 0 1.571.84 2.338 1.863 1.699zm-.037 123.336c1.005 0 1.827-1.645 1.827-3.654 0-2.01-.822-3.654-1.827-3.654-1.004 0-1.826 1.644-1.826 3.654s.822 3.654 1.826 3.654zm4.566-301.443c1.516 0 2.74-.822 2.74-1.827 0-1.004-1.224-1.827-2.74-1.827-1.497 0-2.74.823-2.74 1.827 0 1.005 1.243 1.827 2.74 1.827zm-.11 407.404c3.544 0 3.453-13.994-.09-15.364-1.918-.731-2.54 1.005-2.54 7.198 0 5.883.731 8.166 2.63 8.166zm3.252-238.395c.621 6.979.712 7.07 2.155 2.247.822-2.759.95-7.984.274-11.6-1.132-6.048-1.424-6.304-3.708-3.198-1.351 1.863-1.771 3.8-.931 4.33.858.511 1.845 4.22 2.21 8.221zm17.863 172.626c1.005 0 1.827-1.644 1.827-3.654s-.822-3.654-1.827-3.654c-1.004 0-1.826 1.645-1.826 3.654 0 2.01.822 3.654 1.826 3.654zm17.991 42.02c.84 0 3.927-2.047 6.85-4.568 3.27-2.814 4.274-4.567 2.63-4.567-1.48 0-4.512 1.845-6.74 4.11-4.676 4.732-4.84 5.024-2.74 5.024zm3.58-248.006c1.48-.31 2.174 2.814 2.174 9.701 0 5.59.694 9.738 1.534 9.208 1.717-1.06 1.15-8.02-1.99-23.933-1.955-9.938-2.266-10.45-3.38-5.48-1.625 7.216-1.023 11.07 1.662 10.504zm-.255-58.461c.493-1.26.493-3.307 0-4.568-.512-1.26-.932-.219-.932 2.284 0 2.521.42 3.544.932 2.284zm1.826 21.923c.493-1.26.493-3.307 0-4.567-.511-1.261-.931-.22-.931 2.283 0 2.521.42 3.544.931 2.284zm16 114.493c1.571 1.754 2.868 4.97 2.868 7.143 0 2.174.822 3.965 1.826 3.965 1.005 0 1.827-1.48 1.827-3.289 0-4.037-4.073-13.117-5.881-13.135-.731-.018-.603-1.937.292-4.275.895-2.357.968-5.335.146-6.65-.804-1.297-.73-4.915.164-8.02 1.918-6.742.75-11.382-3.27-12.917-2.63-1.005-2.83.786-1.899 16.424.73 12.24 1.918 18.544 3.927 20.754zm.128 155.435c3.507 0 3.507-1.133 0-2.485-1.498-.584-2.74-.256-2.74.713 0 .968 1.242 1.772 2.74 1.772zm6.393-116.01c1.005-.621 1.826-2.1 1.808-3.307-.018-1.297-.73-1.077-1.808.567-2.265 3.507-2.265 4.147 0 2.74zm1.826 88.606c1.005 0 1.827-.913 1.827-2.028 0-1.9 2.41-4.896 12.31-15.364 2.247-2.375 3.708-5.408 3.234-6.705-.494-1.389 1.808-3.709 5.497-5.554 6.375-3.16 9.17-1.352 3.16 2.046-3.032 1.736-3.032 1.973 0 5.06 3.069 3.088 3.197 3.07 3.197-.401 0-2.01 1.643-4.842 3.653-6.285 2.009-1.443 3.653-3.617 3.653-4.823 0-1.187 1.04-2.594 2.283-3.106 1.717-.694 1.607-1.406-.457-2.85-2.155-1.534-3.16-.931-4.749 2.85-1.278 2.978-2.502 4.001-3.306 2.704-.712-1.15-.785-2.905-.164-3.91 2.74-4.42-4.475-1.297-7.38 3.198-1.771 2.758-4.346 5.681-5.68 6.485-1.351.804-2.465 2.467-2.465 3.709s-1.644 3.435-3.654 4.878c-2.009 1.443-3.653 3.69-3.653 4.969 0 1.297-.931 2.339-2.082 2.339-2.794 0-6.922 5.645-6.995 9.59-.019 1.755.767 3.198 1.771 3.198zm4.567-99.823c1.516-.566 2.74-1.754 2.74-2.613 0-.877-1.224-1.114-2.74-.53-1.498.585-2.74 1.754-2.74 2.631 0 .859 1.242 1.096 2.74.512zm0 14.615c1.516-.566 2.74-1.863 2.74-2.85 0-1.005 1.698-4.202 3.78-7.106 5.115-7.18 1.608-6.778-4.42.511-5.351 6.45-6.374 11.09-2.1 9.445zm0 102.308c1.516-.566 2.74-1.882 2.74-2.905 0-1.06-1.151-.895-2.74.42-3.489 2.905-3.489 3.837 0 2.485zm14.776-123.72c2.52-2.886 4.22-5.626 3.763-6.083-1.48-1.461-8.493 5.627-8.439 8.514.055 1.881 1.553 1.096 4.676-2.43zm4.402-20.351c1.005-.621 1.827-1.955 1.827-2.96s-.822-1.315-1.827-.694-1.826 1.955-1.826 2.96c0 1.004.821 1.315 1.826.694zm2.74 10.706c1.516-.567 2.74-1.754 2.74-2.613 0-.877-1.224-1.114-2.74-.53-1.498.585-2.74 1.754-2.74 2.631 0 .859 1.242 1.096 2.74.512zm2.228-19.84c.475-2.01 1.607-4.44 2.52-5.39 2.156-2.266 2.12-6.486-.054-6.486-1.735 0-3.251 5.408-3.306 11.875-.055 3.654-.055 3.654.84 0zm2.338 11.874c1.005 0 1.827-.877 1.827-1.936 0-1.06-.822-1.425-1.827-.804-2.338 1.443-2.338 2.74 0 2.74zm4.566 105.34c4.092-1.9 5.535-4.676 4.731-9.152-.164-.859.749-2.923 2.01-4.568 1.26-1.662.036-1.004-2.704 1.444-3.653 3.252-4.365 4.823-2.685 5.882 1.699 1.06 1.242 2.193-1.808 4.33-5.407 3.8-5.206 4.677.456 2.065zm-1.48-132.397c.512-1.315.457-2.904-.145-3.507-.621-.603-1.041.475-.968 2.393.091 2.138.53 2.576 1.114 1.114zm1.79 16.552c.494-1.26.494-3.306 0-4.567-.51-1.26-.93-.22-.93 2.284 0 2.52.42 3.544.93 2.283zm2.101 14.159c2.43 0 3.982-2.412 5.79-9.025 1.334-4.95 4.366-11.254 6.722-13.976 2.338-2.74 4.256-5.572 4.256-6.303 0-.749 3.707-5.097 8.219-9.683 7.562-7.673 8.22-9.08 8.22-17.556 0-5.08.748-9.226 1.661-9.226.914 0 3.47-3.727 5.68-8.276 2.21-4.567 5.206-9.5 6.686-10.98 1.48-1.462 2.374-4.11 2.009-5.864-.493-2.302-1.607-1.28-4 3.653-1.827 3.764-4.347 6.851-5.626 6.851-1.26 0-2.776 2.375-3.342 5.262-.585 2.886-2.338 6.54-3.89 8.093-1.553 1.553-2.832 5.755-2.832 9.336 0 5.353-1.607 8.184-8.986 15.711-5.571 5.682-9.48 8.422-10.247 7.162-.694-1.096 1.096-4.458 3.964-7.454 4.182-4.366 4.493-5.188 1.57-4.147-3.799 1.37-11.69 9.628-11.799 12.368-.036.859 1.187 1.078 2.74.475 1.68-.64 3.288.165 3.982 1.992.657 1.68.219 3.38-.987 3.763-1.187.402-2.155 2.302-2.155 4.22 0 1.937-.822 3.508-1.826 3.508-1.005 0-1.827 1.973-1.827 4.366 0 2.412-1.169 4.823-2.594 5.371-1.424.548-2.958 2.905-3.397 5.225-.456 2.32-.931 4.422-1.06 4.677-.145.256 1.243.457 3.07.457zm3.982-26.49c1.005-.622 1.827-1.955 1.827-2.96s-.822-1.315-1.827-.694c-1.004.62-1.826 1.955-1.826 2.96 0 1.004.822 1.315 1.826.694zm1.827 97.74c1.004 0 1.826-.73 1.826-1.608 0-.895 1.754-2.082 3.89-2.63 3.526-.932 3.635-1.298 1.06-3.874-3.78-3.781-4.95-3.599-4.95.804 0 2.01-.822 3.654-1.826 3.654a1.832 1.832 0 0 0-1.827 1.827c0 1.005.822 1.827 1.827 1.827zm3.086 5.828c.512-1.315.457-2.905-.146-3.508-.62-.603-1.04.475-.968 2.393.092 2.138.53 2.576 1.114 1.115zm10.649-134.845c2.41-2.814 4.018-5.481 3.562-5.938-.457-.457-2.265.804-4.037 2.795-1.772 1.992-4.858 4.312-6.868 5.134-3.379 1.425-3.397 1.59-.347 2.32 2.028.475 5.005-1.187 7.69-4.311zm-.95 116.229c1.005 0 1.827-1.224 1.827-2.74 0-1.499-.822-2.741-1.827-2.741-1.004 0-1.826 1.242-1.826 2.74 0 1.517.822 2.74 1.826 2.74zm7.306-10.962c2.375 0 2.375-4.933 0-6.394-1.004-.621-1.826.566-1.826 2.63 0 2.065.822 3.764 1.826 3.764zm20.165-115.882c3.89-7.764 4.383-10.176 2.137-10.176-.804 0-2.32 2.668-3.397 5.938-3.197 9.756-2.558 11.911 1.26 4.238zm19.16-118.311c.566-.567-.457-1.59-2.247-2.266-2.612-1.004-2.813-.785-1.023 1.005 1.224 1.26 2.704 1.827 3.27 1.26zm5.224 157.462c.383 0 2.082-2.265 3.762-5.024l3.05-5.024-3.762 4.312c-3.671 4.22-4.475 5.736-3.05 5.736zm6.502 150.776c1.096-.676 1.461-2.064.804-3.124-.75-1.224-1.699-1.023-2.667.548-1.808 2.923-.84 4.257 1.863 2.576zm5.57-165.391c1.005 0 1.827-.877 1.827-1.937s-.822-1.425-1.826-.804c-2.338 1.444-2.338 2.74 0 2.74zm7.307-80.129c0 .987.822 1.279 1.826.658 1.005-.621 1.827-2.357 1.827-3.873 0-1.498-.749-2.266-1.662-1.7-.913.567-2.028.402-2.448-.347-.42-.767-.493-.292-.146 1.042.329 1.352.603 3.233.603 4.22zm5.57 44.449c.969-.585 1.736-2.192 1.736-3.544 0-1.37 1.023-2.832 2.265-3.252 1.662-.548 1.443-1.59-.767-3.8-4.183-4.184-4.33-4.038-4.658 4.311-.183 4.239.438 6.906 1.425 6.285zm-1.186 17.41c.383 0 1.205-1.278 1.79-2.831.639-1.626.328-2.357-.713-1.717-1.735 1.077-2.557 4.549-1.077 4.549zm5.589-71.852c1.46 0 2.228-.695 1.698-1.553-.53-.859-1.717-1.078-2.666-.512-2.375 1.48-2.12 2.065.968 2.065zM11.905 237.31c.904 0 1.644 2.886 1.644 6.394 0 3.526-.74 6.394-1.644 6.394-.904 0-1.644-2.868-1.644-6.394 0-3.508.74-6.394 1.644-6.394zm1.286 16.935c.606.603.672 2.193.144 3.508-.582 1.462-1.015 1.023-1.103-1.114-.08-1.919.353-2.996.96-2.394zm427.092-142.993c.457 0 1.315.822 1.936 1.827s.256 1.827-.803 1.827c-1.06 0-1.936-.822-1.936-1.827s.365-1.827.803-1.827z"/></svg>