<svg xmlns="http://www.w3.org/2000/svg" viewBox="0 0 72 72">
  <title>
    logo
  </title>
  <g fill="none" fill-rule="evenodd">
    <circle cx="36" cy="36" r="36" fill="#FFF"/>
    <path fill="#282828" fill-rule="nonzero" d="M59 53.833v.169c-.073 0-.152.02-.217-.003-.313-.105-.6-.043-.859.14a.468.468 0 0 0-.186.26c-.041.228-.173.361-.365.456a2.547 2.547 0 0 1-1.166.245 4.635 4.635 0 0 0-2.36.604c-.275.155-.597.297-.904.313-.75.038-1.503.005-2.255-.01-.628-.014-1.146-.283-1.608-.697-.234-.21-.501-.385-.762-.563-.282-.191-.583-.29-.936-.198-.655.169-1.314.322-1.797.85-.103.113-.18.071-.253-.033-.245-.344-.274-.73-.207-1.129.06-.36-.018-.667-.298-.914-.063-.056-.138-.11-.176-.181-.102-.194-.235-.389-.27-.598-.079-.473.1-.915.272-1.344.277-.69.49-1.389.446-2.144-.033-.554-.045-1.11-.097-1.662-.04-.425-.124-.845-.191-1.267-.024-.145-.092-.184-.236-.113-.131.065-.276.107-.419.14-1.068.24-2.13.51-3.207.704a28.84 28.84 0 0 1-2.924.376c-.64.048-1.26.127-1.842.393-1.187.544-2.373 1.09-3.547 1.662-.765.373-1.552.666-2.399.752-.625.065-1.05.36-1.339.913-.21.403-.453.792-.708 1.17-.356.527-.792.995-1.421 1.17-.713.2-1.33.564-1.931.965-.837.56-1.648 1.153-2.374 1.856-.32.31-.393.667-.265 1.077.042.134.098.262.152.392.206.498.424.992.616 1.495.076.201.095.424.14.637-.185-.086-.296-.204-.441-.36 0 .199-.03.346.005.474.154.548.428 1.044.903 1.357.227.15.56.152.848.193.776.11 1.409.46 1.879 1.087.183.245.203.523.12.868l-.67-.547c-.04.101-.072.163-.087.228a.582.582 0 0 1-.47.458 1.127 1.127 0 0 1-.458.027c-.35-.071-.691-.182-1.039-.264-.303-.07-.37-.004-.416.295-.025.16-.101.312-.154.468h-.17c-.09-.139-.169-.297-.38-.261-.616.103-1.114-.083-1.557-.535-.282-.288-.658-.268-.953.006-.347.323-.734.377-1.172.298-.219-.039-.436-.034-.627.173a5.137 5.137 0 0 1-.054-1.367c.036-.374.15-.718.4-1 .362-.409.478-.898.496-1.419.037-1.046.061-2.093.09-3.14.022-.779.163-1.528.496-2.242.46-.992.925-1.983 1.33-2.998a4.498 4.498 0 0 1 1.206-1.722c.26-.233.497-.495.724-.762.16-.189.147-.314-.054-.465a4.129 4.129 0 0 0-.73-.455c-1.018-.47-1.922-1.103-2.78-1.817-.799-.666-1.626-1.3-2.434-1.954-.78-.633-1.592-1.234-2.322-1.921-1.576-1.484-2.683-3.272-3.263-5.367-.147-.532-.25-1.075-.373-1.613v-.802c.22-.78.4-1.574.671-2.336.471-1.328 1.008-2.631 1.497-3.953.368-.993.438-2.022.167-3.045-.242-.914-.543-1.812-.831-2.712-.364-1.134-.628-2.281-.401-3.476a7.348 7.348 0 0 1 2.049-3.89c.086-.086.312-.184.344-.15.13.131.037.294-.039.436-.182.222-.3.336-.384.472-.188.304-.364.616-.535.93-.808 1.483-.863 3.002-.235 4.564.405 1.009.98 1.923 1.51 2.864.296.523.608 1.056.786 1.624.416 1.325.379 2.687.157 4.046-.154.94-.343 1.877-.463 2.822-.118.94.135 1.784.846 2.453.22.207.443.412.672.61.753.654 1.587 1.154 2.572 1.384.69.162 1.384.29 2.086.13.718-.165 1.426-.372 2.138-.56.327-.087.608-.254.85-.487l3.556-3.425a2.4 2.4 0 0 0 .575-.896c.3-.786.622-1.563.915-2.352.737-1.98 1.524-3.94 2.649-5.74.97-1.553 1.658-3.229 2.23-4.957.33-.992.626-1.994.768-3.034.037-.27.033-.556.125-.806a15.87 15.87 0 0 1 1.868-3.595c.482-.696 1.098-1.224 1.95-1.414.28-.062.567-.097.85-.144h1.437c.069.012.137.03.207.034a4.38 4.38 0 0 1 1.561.396c.361.165.753.26 1.129.395.222.08.455.151.656.272.25.151.475.347.708.528.258.2.488.385.877.33.626-.088 1.057.266 1.322.81.262.538.618 1.005 1.023 1.437.48.514.992.998 1.463 1.52.553.611 1.03 1.28 1.337 2.055.118.298.15.6.025.901-.374.903-1.065 1.46-1.971 1.773-.064.022-.188.013-.214-.026-.132-.207-.286-.121-.442-.057-.144.058-.286.12-.478.2.037-.148.053-.235.08-.32.05-.147-.009-.18-.144-.146-.102.026-.206.048-.346.08.07-.22.08-.296.092-.372-.08.01-.16.014-.238.034-.237.153-.344.235-.462.323.013-.186.044-.3.07-.416.045-.215.003-.27-.22-.265-.217.006-.435.033-.653.038-.226.006-.275-.054-.225-.267.038-.162-.004-.203-.17-.163-.092.022-.276.005-.285-.03-.056-.212-.186-.243-.398-.17.027-.117.05-.196.063-.277-.209-.237-.248-.434-.331-.623-.07-.16-.42-.198-.556-.114-.144.089-.183.27-.101.493.115.314.322.567.596.744.156.1.18.193.12.343-.075.186.01.312.165.403.078.046.166.076.248.114.363.167.657.412.83.776.183.381.174.746-.133 1.07-.037.039-.066.085-.124.162l.602-.112c-.028.131-.058.212-.06.292-.001.07.01.187.05.205.179.08.134.208.066.31-.23.342-.463.683-.72 1.004a.65.65 0 0 1-.632.222c-.813-.142-1.594-.362-2.154-1.03a25.057 25.057 0 0 1-.783-.966c-.475-.627-.94-1.262-1.406-1.895-.05-.067-.086-.142-.128-.214-.08.362-.055.657-.02.952.09.752.214 1.5.268 2.255.052.731.196 1.423.515 2.087.159.33.234.7.357 1.049.062.176.111.374.226.512.236.285.503.547.776.798.172.16.397.202.632.156.427-.085.855-.167 1.281-.254.429-.088.848-.085 1.266.066.68.245 1.366.473 2.046.717.157.057.307.139.45.225.05.03.104.12.093.167-.012.047-.1.094-.16.106-.124.025-.252.03-.378.036-.204.01-.27.125-.249.309.016.132.049.262.06.395.023.245.035.491.052.737a1.184 1.184 0 0 1-.5-.226c-.463-.366-.91-.753-1.38-1.11-.408-.308-.875-.524-1.395-.415-.343.072-.67.24-.99.392-.322.152-.638.2-.978.081-.169-.058-.344-.095-.565-.156.038.227.054.407.099.58.307 1.184.41 2.394.434 3.61.026 1.293.026 2.586.028 3.88 0 .153.057.22.185.282.494.236.982.484 1.474.725 2.142 1.047 3.898 2.573 5.445 4.36.218.25.333.534.306.867-.03.364-.041.73-.101 1.09-.237 1.413-.635 2.785-1.103 4.14-.295.853-.567 1.715-.85 2.574-.055.168-.03.317.098.445.15.148.284.318.453.44.47.341.954.666 1.437.99.194.129.38.117.582-.028.359-.258.726-.509 1.11-.726.279-.158.581-.287.888-.374.468-.132.83.032.983.412-.07.024-.136.056-.206.07-.158.032-.322.04-.476.083-.208.058-.253.167-.19.39.061.217.166.29.37.23.155-.045.306-.107.45-.177.698-.337 1.41-.643 2.181-.754.37-.053.753-.036 1.13-.025.069.002.134.133.2.205-.072.043-.14.11-.219.126a1.894 1.894 0 0 0-.902.473c-.258.239-.21.483.114.618a.712.712 0 0 0 .202.056c.328.032.66.046.986.089.44.058.882.126 1.189.502z"/>
  </g>
</svg>
