<svg xmlns="http://www.w3.org/2000/svg" viewBox="0 0 805 220">
  <title>
    Rawr.
  </title>
  <g fill="none" fill-rule="evenodd">
    <path fill="#494949" d="M.232 198.72l22.752-2.88V23.616l-21.6-4.032V2.016h41.76c3.648 0 7.68-.096 12.096-.288 4.416-.192 7.776-.384 10.08-.576C75.304.384 83.56 0 90.088 0c19.776 0 35.616 2.016 47.52 6.048 11.904 4.032 20.544 10.176 25.92 18.432 5.376 8.256 8.064 19.104 8.064 32.544 0 13.248-3.552 25.536-10.656 36.864-7.104 11.328-17.376 19.104-30.816 23.328 7.68 3.264 14.496 9.216 20.448 17.856 5.952 8.64 12.288 19.872 19.008 33.696 4.8 9.408 8.496 16.176 11.088 20.304 2.592 4.128 5.136 6.48 7.632 7.056l9.504 2.88V216h-48.96c-3.072 0-6.288-3.12-9.648-9.36-3.36-6.24-7.728-16.08-13.104-29.52-6.336-15.744-11.808-28.032-16.416-36.864-4.608-8.832-9.504-14.304-14.688-16.416H65.32v72l26.496 2.88V216H.232v-17.28zm91.584-92.448c10.944 0 19.488-3.936 25.632-11.808 6.144-7.872 9.216-19.68 9.216-35.424 0-14.016-3.024-24.384-9.072-31.104-6.048-6.72-16.464-10.08-31.248-10.08-5.376 0-9.936.24-13.68.72-3.744.48-6.192.72-7.344.72v86.4c2.304.384 7.872.576 16.704.576h9.792zm114.624 64.8c0-17.472 8.784-30.624 26.352-39.456 17.568-8.832 40.272-13.344 68.112-13.536v-6.624c0-7.872-.816-14.016-2.448-18.432-1.632-4.416-4.608-7.728-8.928-9.936-4.32-2.208-10.608-3.312-18.864-3.312-9.408 0-17.856 1.2-25.344 3.6-7.488 2.4-15.264 5.52-23.328 9.36l-8.928-18.432c2.88-2.496 7.728-5.472 14.544-8.928 6.816-3.456 14.928-6.48 24.336-9.072 9.408-2.592 19.104-3.888 29.088-3.888 14.784 0 26.352 1.92 34.704 5.76s14.352 9.984 18 18.432c3.648 8.448 5.472 19.776 5.472 33.984v88.128h15.552v16.128c-3.84.96-9.312 1.92-16.416 2.88-7.104.96-13.344 1.44-18.72 1.44-6.528 0-10.896-.96-13.104-2.88-2.208-1.92-3.312-5.856-3.312-11.808v-7.776c-5.184 5.76-11.904 10.944-20.16 15.552-8.256 4.608-17.568 6.912-27.936 6.912-8.832 0-16.944-1.872-24.336-5.616-7.392-3.744-13.296-9.216-17.712-16.416-4.416-7.2-6.624-15.888-6.624-26.064zm67.104 24.192c4.032 0 8.64-1.2 13.824-3.6 5.184-2.4 9.696-5.328 13.536-8.784v-47.232c-17.28 0-30.192 2.928-38.736 8.784-8.544 5.856-12.816 13.392-12.816 22.608 0 9.216 2.16 16.224 6.48 21.024 4.32 4.8 10.224 7.2 17.712 7.2zm82.08-139.104h74.304v16.416l-20.16 3.456 21.312 76.608 6.912 31.392 6.336-31.68 25.92-96.192h34.848l28.512 96.192 6.912 31.68 6.912-31.392 20.16-76.32-21.024-3.744V56.16H608.2v16.416l-14.688 3.168-43.776 142.56h-33.12l-29.088-93.312-6.624-34.272-5.184 34.272-26.784 93.312h-33.408l-46.08-142.56-13.824-3.168V56.16zm258.912 142.848l19.008-2.304V83.232l-18.432-5.184V58.176l44.64-6.048h.864l7.2 5.76v6.336l-.864 23.328h.864c1.344-3.84 4.512-8.592 9.504-14.256S688.6 62.64 696.184 58.32c7.584-4.32 15.792-6.48 24.624-6.48 4.224 0 7.872.576 10.944 1.728v43.2c-5.76-4.032-12.768-6.048-21.024-6.048-14.016 0-26.208 3.744-36.576 11.232v94.464l33.408 2.592V216h-93.024v-16.992zm162.72 19.584c-5.952 0-11.136-2.064-15.552-6.192s-6.624-9.36-6.624-15.696c0-7.104 2.544-12.912 7.632-17.424 5.088-4.512 11.28-6.768 18.576-6.768 6.912 0 12.384 2.16 16.416 6.48s6.048 9.456 6.048 15.408c0 7.488-2.448 13.392-7.344 17.712-4.896 4.32-11.28 6.48-19.152 6.48z"/>
    <g transform="translate(751 166)">
      <circle cx="27" cy="27" r="27" fill="#494949"/>
      <path fill="#FFF" fill-rule="nonzero" d="M44 41.28v.129c-.055 0-.114.015-.163-.002a.68.68 0 0 0-.644.105.355.355 0 0 0-.14.199c-.03.173-.13.274-.273.346a1.89 1.89 0 0 1-.875.185 3.443 3.443 0 0 0-1.77.46c-.206.117-.447.225-.678.236-.562.03-1.127.005-1.69-.007-.472-.01-.86-.215-1.207-.529-.175-.16-.376-.292-.572-.427-.211-.145-.437-.22-.701-.151-.492.129-.986.245-1.349.646-.076.085-.134.054-.189-.025-.184-.262-.205-.555-.155-.857.045-.275-.014-.507-.224-.695-.047-.042-.103-.083-.131-.137-.077-.147-.177-.295-.203-.454-.06-.359.075-.695.204-1.02.207-.525.368-1.055.334-1.628-.024-.421-.034-.843-.072-1.262-.03-.323-.093-.642-.144-.962-.017-.11-.069-.14-.177-.086a1.414 1.414 0 0 1-.314.106c-.8.183-1.598.388-2.405.535a21.38 21.38 0 0 1-2.193.285c-.48.037-.945.096-1.382.299-.89.412-1.78.827-2.66 1.262-.574.283-1.164.505-1.799.57-.47.05-.788.274-1.004.694-.158.306-.34.601-.532.888-.266.4-.593.756-1.065.889-.535.15-.997.427-1.449.732-.627.425-1.235.876-1.78 1.41-.24.235-.295.506-.199.817.031.101.074.2.114.297.155.379.318.753.462 1.136.057.152.071.322.105.483-.139-.065-.222-.155-.33-.273 0 .151-.024.263.003.36.116.416.321.793.677 1.03.17.114.42.116.636.147.582.083 1.057.349 1.41.825.137.186.152.397.09.659l-.503-.415c-.03.077-.053.123-.065.173a.439.439 0 0 1-.352.348.835.835 0 0 1-.344.02c-.262-.054-.518-.138-.779-.2-.227-.054-.278-.003-.312.224-.019.121-.076.237-.116.355h-.127c-.068-.106-.127-.225-.285-.198-.463.078-.836-.063-1.168-.406-.212-.219-.494-.204-.715.004-.26.245-.55.286-.879.227-.164-.03-.327-.026-.47.13a3.948 3.948 0 0 1-.04-1.037c.027-.284.113-.545.3-.759.27-.31.358-.682.372-1.078.027-.794.045-1.59.067-2.384.016-.591.122-1.16.372-1.702.345-.753.694-1.506.998-2.276.204-.516.5-.942.904-1.308.195-.177.373-.375.543-.578.12-.144.11-.239-.04-.353a3.09 3.09 0 0 0-.548-.346c-.763-.357-1.442-.838-2.085-1.38-.6-.505-1.22-.986-1.826-1.483-.585-.48-1.193-.937-1.74-1.459A8.728 8.728 0 0 1 8.28 28.54c-.11-.403-.188-.816-.28-1.224v-.609c.166-.592.3-1.195.504-1.774.353-1.008.755-1.998 1.122-3a3.818 3.818 0 0 0 .125-2.313c-.181-.694-.407-1.376-.623-2.06-.273-.86-.47-1.731-.301-2.639a5.602 5.602 0 0 1 1.537-2.952c.065-.067.234-.14.258-.115.098.1.028.224-.03.332-.136.168-.224.255-.287.358-.141.23-.273.467-.402.706-.605 1.126-.647 2.279-.176 3.465.304.766.735 1.46 1.133 2.174.222.398.456.802.59 1.233.311 1.006.283 2.04.117 3.073-.116.714-.258 1.425-.347 2.142-.089.714.101 1.355.634 1.863.166.157.333.313.504.463.565.496 1.19.876 1.929 1.05.518.123 1.038.22 1.565.099.538-.125 1.069-.282 1.603-.425.245-.066.457-.193.638-.37.89-.866 1.778-1.733 2.667-2.6.197-.192.334-.421.43-.68.225-.597.467-1.187.687-1.786.553-1.504 1.143-2.991 1.987-4.359.727-1.178 1.244-2.45 1.673-3.763.247-.753.47-1.514.575-2.303.028-.205.026-.422.094-.613.35-.97.82-1.88 1.401-2.73.362-.527.824-.929 1.463-1.072.21-.048.425-.074.637-.11h1.078c.052.009.103.022.155.026.41.025.796.128 1.171.3.271.126.565.198.846.3.168.061.342.115.492.207.189.115.357.264.532.4.193.153.366.293.657.251.47-.066.793.202.992.616.196.408.464.763.767 1.09.36.39.744.758 1.097 1.154.416.465.773.972 1.003 1.56.089.227.112.456.019.685-.28.686-.798 1.109-1.478 1.346-.048.016-.141.01-.16-.02-.1-.157-.215-.092-.332-.043-.108.044-.215.09-.359.152.028-.112.04-.179.06-.242.037-.113-.006-.138-.108-.112-.076.02-.154.036-.259.06.053-.166.06-.224.069-.282-.06.008-.12.011-.179.026-.177.116-.258.178-.346.245.01-.14.033-.228.052-.316.034-.163.002-.205-.164-.2-.164.004-.327.024-.49.028-.17.005-.207-.04-.17-.203.03-.123-.002-.154-.127-.123-.069.016-.206.004-.213-.023-.043-.16-.14-.185-.299-.13.02-.088.037-.148.048-.21-.157-.18-.187-.329-.25-.473-.052-.121-.314-.15-.416-.086-.108.067-.138.204-.076.374.086.239.242.43.447.565.117.077.135.147.09.26-.056.142.007.238.124.306.059.035.124.058.186.087.272.127.492.313.623.59.137.289.13.565-.1.812-.028.03-.05.064-.093.123l.451-.085c-.021.1-.043.16-.044.222-.001.053.006.141.037.155.134.061.1.158.049.235-.172.26-.347.52-.54.763a.485.485 0 0 1-.474.168c-.61-.108-1.195-.274-1.616-.782-.2-.24-.399-.483-.587-.733-.356-.476-.704-.959-1.054-1.44-.037-.05-.064-.107-.096-.161-.06.274-.041.499-.015.722.067.571.16 1.14.2 1.712.04.556.148 1.08.387 1.585.12.251.176.532.268.796.047.134.084.284.17.39.177.216.377.414.581.605.13.121.298.154.475.118.32-.064.64-.126.96-.192.322-.067.636-.065.95.05.51.186 1.024.36 1.534.544.118.043.23.105.338.171.037.024.078.092.07.127-.01.036-.075.071-.12.08-.093.02-.19.024-.284.028-.153.007-.203.094-.187.234.012.1.037.2.046.3.016.186.026.373.038.56a.883.883 0 0 1-.375-.172c-.347-.278-.682-.572-1.035-.842-.306-.235-.656-.399-1.046-.316-.257.055-.502.182-.743.298-.241.115-.478.151-.733.062-.127-.044-.258-.073-.424-.119.028.172.04.31.075.44.23.9.307 1.818.325 2.74.02.983.02 1.965.021 2.947 0 .116.043.168.139.214.37.18.736.368 1.106.55 1.606.796 2.923 1.954 4.083 3.31.163.192.25.406.23.66-.022.275-.031.554-.077.827-.177 1.073-.475 2.115-.826 3.143-.222.648-.425 1.303-.638 1.954-.041.128-.023.242.074.338.112.113.212.242.339.335.353.259.716.505 1.078.751.145.098.285.089.436-.02.27-.197.545-.387.834-.552.208-.12.435-.218.665-.284.351-.1.623.024.737.313-.052.018-.102.042-.154.053-.119.024-.242.03-.357.063-.156.044-.19.126-.143.296.046.164.125.22.278.175.116-.035.229-.081.338-.134.523-.257 1.056-.489 1.635-.573.278-.04.565-.028.847-.02.052.002.1.102.151.156-.055.033-.106.083-.164.096-.26.056-.485.18-.678.36-.193.18-.157.366.086.469.048.02.1.037.152.042.246.024.494.035.74.067.33.044.66.096.891.382z"/>
    </g>
  </g>
</svg>
